<?xml version="1.0" encoding="UTF-8"?>
<!--Generator: Apple Native CoreSVG 175.5-->
<!DOCTYPE svg
PUBLIC "-//W3C//DTD SVG 1.1//EN"
       "http://www.w3.org/Graphics/SVG/1.1/DTD/svg11.dtd">
<svg version="1.1" xmlns="http://www.w3.org/2000/svg" xmlns:xlink="http://www.w3.org/1999/xlink" width="3300" height="2200">
 <!--glyph: "uni1014F6.medium", point size: 100.0, font version: "18.0d12e2", template writer version: "101"-->
 <g id="Notes">
  <rect height="2200" id="artboard" style="fill:white;opacity:1" width="3300" x="0" y="0"/>
  <line style="fill:none;stroke:black;opacity:1;stroke-width:0.5;" x1="263" x2="3036" y1="292" y2="292"/>
  <text style="stroke:none;fill:black;font-family:sans-serif;font-size:13;font-weight:bold;" transform="matrix(1 0 0 1 263 322)">Weight/Scale Variations</text>
  <text style="stroke:none;fill:black;font-family:sans-serif;font-size:13;text-anchor:middle;" transform="matrix(1 0 0 1 559.711 322)">Ultralight</text>
  <text style="stroke:none;fill:black;font-family:sans-serif;font-size:13;text-anchor:middle;" transform="matrix(1 0 0 1 856.422 322)">Thin</text>
  <text style="stroke:none;fill:black;font-family:sans-serif;font-size:13;text-anchor:middle;" transform="matrix(1 0 0 1 1153.13 322)">Light</text>
  <text style="stroke:none;fill:black;font-family:sans-serif;font-size:13;text-anchor:middle;" transform="matrix(1 0 0 1 1449.84 322)">Regular</text>
  <text style="stroke:none;fill:black;font-family:sans-serif;font-size:13;text-anchor:middle;" transform="matrix(1 0 0 1 1746.56 322)">Medium</text>
  <text style="stroke:none;fill:black;font-family:sans-serif;font-size:13;text-anchor:middle;" transform="matrix(1 0 0 1 2043.27 322)">Semibold</text>
  <text style="stroke:none;fill:black;font-family:sans-serif;font-size:13;text-anchor:middle;" transform="matrix(1 0 0 1 2339.98 322)">Bold</text>
  <text style="stroke:none;fill:black;font-family:sans-serif;font-size:13;text-anchor:middle;" transform="matrix(1 0 0 1 2636.69 322)">Heavy</text>
  <text style="stroke:none;fill:black;font-family:sans-serif;font-size:13;text-anchor:middle;" transform="matrix(1 0 0 1 2933.4 322)">Black</text>
  <line style="fill:none;stroke:black;opacity:1;stroke-width:0.5;" x1="263" x2="3036" y1="1903" y2="1903"/>
  <g transform="matrix(1 0 0 1 263 1933)">
   <path d="M9.24805 0.830078C13.5547 0.830078 17.1387-2.74414 17.1387-7.05078C17.1387-11.3574 13.5449-14.9316 9.23828-14.9316C4.94141-14.9316 1.36719-11.3574 1.36719-7.05078C1.36719-2.74414 4.95117 0.830078 9.24805 0.830078ZM9.24805-0.654297C5.70312-0.654297 2.87109-3.49609 2.87109-7.05078C2.87109-10.6055 5.69336-13.4473 9.23828-13.4473C12.793-13.4473 15.6445-10.6055 15.6445-7.05078C15.6445-3.49609 12.8027-0.654297 9.24805-0.654297ZM5.6543-7.05078C5.6543-6.62109 5.95703-6.32812 6.40625-6.32812L8.50586-6.32812L8.50586-4.20898C8.50586-3.76953 8.79883-3.4668 9.22852-3.4668C9.67773-3.4668 9.9707-3.76953 9.9707-4.20898L9.9707-6.32812L12.0898-6.32812C12.5293-6.32812 12.832-6.62109 12.832-7.05078C12.832-7.49023 12.5293-7.79297 12.0898-7.79297L9.9707-7.79297L9.9707-9.90234C9.9707-10.3516 9.67773-10.6543 9.22852-10.6543C8.79883-10.6543 8.50586-10.3516 8.50586-9.90234L8.50586-7.79297L6.40625-7.79297C5.95703-7.79297 5.6543-7.49023 5.6543-7.05078Z"/>
  </g>
  <g transform="matrix(1 0 0 1 281.867 1933)">
   <path d="M11.709 2.91016C17.1582 2.91016 21.6699-1.61133 21.6699-7.05078C21.6699-12.5 17.1484-17.0117 11.6992-17.0117C6.25977-17.0117 1.74805-12.5 1.74805-7.05078C1.74805-1.61133 6.26953 2.91016 11.709 2.91016ZM11.709 1.25C7.09961 1.25 3.41797-2.44141 3.41797-7.05078C3.41797-11.6602 7.08984-15.3516 11.6992-15.3516C16.3086-15.3516 20.0098-11.6602 20.0098-7.05078C20.0098-2.44141 16.3184 1.25 11.709 1.25ZM7.17773-7.05078C7.17773-6.57227 7.50977-6.25 8.00781-6.25L10.8789-6.25L10.8789-3.36914C10.8789-2.88086 11.2109-2.53906 11.6895-2.53906C12.1777-2.53906 12.5195-2.87109 12.5195-3.36914L12.5195-6.25L15.4004-6.25C15.8887-6.25 16.2305-6.57227 16.2305-7.05078C16.2305-7.53906 15.8887-7.88086 15.4004-7.88086L12.5195-7.88086L12.5195-10.752C12.5195-11.25 12.1777-11.5918 11.6895-11.5918C11.2109-11.5918 10.8789-11.25 10.8789-10.752L10.8789-7.88086L8.00781-7.88086C7.50977-7.88086 7.17773-7.53906 7.17773-7.05078Z"/>
  </g>
  <g transform="matrix(1 0 0 1 305.646 1933)">
   <path d="M14.9707 5.66406C21.9336 5.66406 27.6953-0.0976562 27.6953-7.05078C27.6953-14.0137 21.9238-19.7754 14.9609-19.7754C8.00781-19.7754 2.25586-14.0137 2.25586-7.05078C2.25586-0.0976562 8.01758 5.66406 14.9707 5.66406ZM14.9707 3.84766C8.93555 3.84766 4.08203-1.01562 4.08203-7.05078C4.08203-13.0957 8.92578-17.9492 14.9609-17.9492C21.0059-17.9492 25.8691-13.0957 25.8691-7.05078C25.8691-1.01562 21.0156 3.84766 14.9707 3.84766ZM9.19922-7.05078C9.19922-6.5332 9.57031-6.17188 10.1172-6.17188L14.0625-6.17188L14.0625-2.2168C14.0625-1.67969 14.4336-1.29883 14.9512-1.29883C15.4883-1.29883 15.8594-1.66992 15.8594-2.2168L15.8594-6.17188L19.8145-6.17188C20.3516-6.17188 20.7324-6.5332 20.7324-7.05078C20.7324-7.59766 20.3613-7.96875 19.8145-7.96875L15.8594-7.96875L15.8594-11.9141C15.8594-12.4609 15.4883-12.8418 14.9512-12.8418C14.4336-12.8418 14.0625-12.4609 14.0625-11.9141L14.0625-7.96875L10.1172-7.96875C9.57031-7.96875 9.19922-7.59766 9.19922-7.05078Z"/>
  </g>
  <text style="stroke:none;fill:black;font-family:sans-serif;font-size:13;font-weight:bold;" transform="matrix(1 0 0 1 263 1953)">Design Variations</text>
  <text style="stroke:none;fill:black;font-family:sans-serif;font-size:13;" transform="matrix(1 0 0 1 263 1971)">Symbols are supported in up to nine weights and three scales.</text>
  <text style="stroke:none;fill:black;font-family:sans-serif;font-size:13;" transform="matrix(1 0 0 1 263 1989)">For optimal layout with text and other symbols, vertically align</text>
  <text style="stroke:none;fill:black;font-family:sans-serif;font-size:13;" transform="matrix(1 0 0 1 263 2007)">symbols with the adjacent text.</text>
  <line style="fill:none;stroke:#00AEEF;stroke-width:0.5;opacity:1.0;" x1="776" x2="776" y1="1919" y2="1933"/>
  <g transform="matrix(1 0 0 1 776 1933)">
   <path d="M3.31055 0.15625C3.82812 0.15625 4.08203-0.0390625 4.26758-0.585938L5.52734-4.0332L11.2891-4.0332L12.5488-0.585938C12.7344-0.0390625 12.9883 0.15625 13.4961 0.15625C14.0137 0.15625 14.3457-0.15625 14.3457-0.644531C14.3457-0.810547 14.3164-0.966797 14.2383-1.17188L9.6582-13.3691C9.43359-13.9648 9.0332-14.2676 8.4082-14.2676C7.80273-14.2676 7.39258-13.9746 7.17773-13.3789L2.59766-1.16211C2.51953-0.957031 2.49023-0.800781 2.49023-0.634766C2.49023-0.146484 2.80273 0.15625 3.31055 0.15625ZM6.00586-5.51758L8.37891-12.0898L8.42773-12.0898L10.8008-5.51758Z"/>
  </g>
  <line style="fill:none;stroke:#00AEEF;stroke-width:0.5;opacity:1.0;" x1="793.197" x2="793.197" y1="1919" y2="1933"/>
  <text style="stroke:none;fill:black;font-family:sans-serif;font-size:13;font-weight:bold;" transform="matrix(1 0 0 1 776 1953)">Margins</text>
  <text style="stroke:none;fill:black;font-family:sans-serif;font-size:13;" transform="matrix(1 0 0 1 776 1971)">Leading and trailing margins on the left and right side of each symbol</text>
  <text style="stroke:none;fill:black;font-family:sans-serif;font-size:13;" transform="matrix(1 0 0 1 776 1989)">can be adjusted by modifying the x-location of the margin guidelines.</text>
  <text style="stroke:none;fill:black;font-family:sans-serif;font-size:13;" transform="matrix(1 0 0 1 776 2007)">Modifications are automatically applied proportionally to all</text>
  <text style="stroke:none;fill:black;font-family:sans-serif;font-size:13;" transform="matrix(1 0 0 1 776 2025)">scales and weights.</text>
  <g transform="matrix(1 0 0 1 1289 1933)">
   <path d="M2.8418 1.86523L4.54102 3.57422C5.40039 4.44336 6.38672 4.38477 7.31445 3.35938L18.0078-8.42773L17.041-9.4043L6.42578 2.27539C6.07422 2.67578 5.74219 2.77344 5.27344 2.30469L4.10156 1.14258C3.63281 0.683594 3.74023 0.341797 4.14062-0.0195312L15.6152-10.8203L14.6387-11.7871L3.04688-0.898438C2.06055 0.0195312 1.98242 0.996094 2.8418 1.86523ZM9.25781-16.3281C8.83789-15.918 8.80859-15.3418 9.04297-14.9512C9.27734-14.5898 9.73633-14.3555 10.3809-14.5215C11.8457-14.8633 13.3691-14.9219 14.7949-13.9844L14.209-12.5293C13.8672-11.6992 14.043-11.1133 14.5801-10.5664L16.875-8.25195C17.3633-7.76367 17.7734-7.74414 18.3398-7.8418L19.4043-8.03711L20.0684-7.36328L20.0293-6.80664C19.9902-6.30859 20.1172-5.92773 20.6055-5.44922L21.3672-4.70703C21.8457-4.22852 22.4609-4.19922 22.9297-4.66797L25.8398-7.58789C26.3086-8.05664 26.2891-8.65234 25.8105-9.13086L25.0391-9.89258C24.5605-10.3711 24.1895-10.5273 23.7109-10.4883L23.1348-10.4395L22.4902-11.0742L22.7344-12.1973C22.8613-12.7637 22.7051-13.2031 22.1191-13.7891L19.9219-15.9766C16.582-19.2969 12.1484-19.2188 9.25781-16.3281ZM10.752-15.957C13.1836-17.7344 16.4746-17.4316 18.7012-15.2051L21.1328-12.793C21.3672-12.5586 21.4062-12.373 21.3379-12.0312L21.0156-10.5469L22.5195-9.0625L23.5059-9.12109C23.7598-9.13086 23.8379-9.11133 24.0332-8.91602L24.6094-8.33984L22.168-5.89844L21.5918-6.47461C21.3965-6.66992 21.3672-6.74805 21.377-7.01172L21.4453-7.98828L19.9512-9.47266L18.4277-9.21875C18.1055-9.15039 17.959-9.17969 17.7148-9.41406L15.7129-11.416C15.459-11.6504 15.4297-11.8164 15.5859-12.1875L16.4648-14.2773C14.9023-15.7324 12.8711-16.3574 10.8398-15.7617C10.6836-15.7227 10.625-15.8496 10.752-15.957Z"/>
  </g>
  <text style="stroke:none;fill:black;font-family:sans-serif;font-size:13;font-weight:bold;" transform="matrix(1 0 0 1 1289 1953)">Exporting</text>
  <text style="stroke:none;fill:black;font-family:sans-serif;font-size:13;" transform="matrix(1 0 0 1 1289 1971)">Symbols should be outlined when exporting to ensure the</text>
  <text style="stroke:none;fill:black;font-family:sans-serif;font-size:13;" transform="matrix(1 0 0 1 1289 1989)">design is preserved when submitting to Xcode.</text>
  <text id="template-version" style="stroke:none;fill:black;font-family:sans-serif;font-size:13;text-anchor:end;" transform="matrix(1 0 0 1 3036 1933)">Template v.4.0</text>
  <text style="stroke:none;fill:black;font-family:sans-serif;font-size:13;text-anchor:end;" transform="matrix(1 0 0 1 3036 1951)">Requires Xcode 14 or greater</text>
  <text id="descriptive-name" style="stroke:none;fill:black;font-family:sans-serif;font-size:13;text-anchor:end;" transform="matrix(1 0 0 1 3036 1969)">Generated from party.popper.fill</text>
  <text style="stroke:none;fill:black;font-family:sans-serif;font-size:13;text-anchor:end;" transform="matrix(1 0 0 1 3036 1987)">Typeset at 100 points</text>
  <text style="stroke:none;fill:black;font-family:sans-serif;font-size:13;" transform="matrix(1 0 0 1 263 726)">Small</text>
  <text style="stroke:none;fill:black;font-family:sans-serif;font-size:13;" transform="matrix(1 0 0 1 263 1156)">Medium</text>
  <text style="stroke:none;fill:black;font-family:sans-serif;font-size:13;" transform="matrix(1 0 0 1 263 1586)">Large</text>
 </g>
 <g id="Guides">
  <g id="H-reference" style="fill:#27AAE1;stroke:none;" transform="matrix(1 0 0 1 339 696)">
   <path d="M0.993654 0L3.63775 0L29.3281-67.1323L30.0303-67.1323L30.0303-70.459L28.1226-70.459ZM11.6885-24.4799L46.9815-24.4799L46.2315-26.7285L12.4385-26.7285ZM55.1196 0L57.7637 0L30.6382-70.459L29.4326-70.459L29.4326-67.1323Z"/>
  </g>
  <line id="Baseline-S" style="fill:none;stroke:#27AAE1;opacity:1;stroke-width:0.5;" x1="263" x2="3036" y1="696" y2="696"/>
  <line id="Capline-S" style="fill:none;stroke:#27AAE1;opacity:1;stroke-width:0.5;" x1="263" x2="3036" y1="625.541" y2="625.541"/>
  <g id="H-reference" style="fill:#27AAE1;stroke:none;" transform="matrix(1 0 0 1 339 1126)">
   <path d="M0.993654 0L3.63775 0L29.3281-67.1323L30.0303-67.1323L30.0303-70.459L28.1226-70.459ZM11.6885-24.4799L46.9815-24.4799L46.2315-26.7285L12.4385-26.7285ZM55.1196 0L57.7637 0L30.6382-70.459L29.4326-70.459L29.4326-67.1323Z"/>
  </g>
  <line id="Baseline-M" style="fill:none;stroke:#27AAE1;opacity:1;stroke-width:0.5;" x1="263" x2="3036" y1="1126" y2="1126"/>
  <line id="Capline-M" style="fill:none;stroke:#27AAE1;opacity:1;stroke-width:0.5;" x1="263" x2="3036" y1="1055.54" y2="1055.54"/>
  <g id="H-reference" style="fill:#27AAE1;stroke:none;" transform="matrix(1 0 0 1 339 1556)">
   <path d="M0.993654 0L3.63775 0L29.3281-67.1323L30.0303-67.1323L30.0303-70.459L28.1226-70.459ZM11.6885-24.4799L46.9815-24.4799L46.2315-26.7285L12.4385-26.7285ZM55.1196 0L57.7637 0L30.6382-70.459L29.4326-70.459L29.4326-67.1323Z"/>
  </g>
  <line id="Baseline-L" style="fill:none;stroke:#27AAE1;opacity:1;stroke-width:0.5;" x1="263" x2="3036" y1="1556" y2="1556"/>
  <line id="Capline-L" style="fill:none;stroke:#27AAE1;opacity:1;stroke-width:0.5;" x1="263" x2="3036" y1="1485.54" y2="1485.54"/>
  <line id="left-margin-Regular-M" style="fill:none;stroke:#00AEEF;stroke-width:0.5;opacity:1.0;" x1="1375.57" x2="1375.57" y1="1030.79" y2="1150.12"/>
  <line id="right-margin-Regular-M" style="fill:none;stroke:#00AEEF;stroke-width:0.5;opacity:1.0;" x1="1524.12" x2="1524.12" y1="1030.79" y2="1150.12"/>
 </g>
 <g id="Symbols">
  <g id="Black-L" transform="matrix(1 0 0 1 2829.71 1556)">
   <path d="M125.633 7.98199C146.875-0.894795 128.783-32.3445 112.879-48.2685C96.6807-64.4464 66.7856-83.2694 56.6546-60.9132L17.8487 25.1945C11.4786 39.4404 23.3265 50.8299 37.1271 45.0526ZM88.8929-24.1663C73.2631-39.774 67.8793-52.5812 70.8509-55.5332C73.8017-58.5632 86.5285-53.0394 102.159-37.4681C117.868-21.8591 123.115-9.0519 120.223-6.15953C117.251-3.10871 104.464-8.57289 88.8929-24.1663ZM80.0274-102C85.3475-102 89.5189-106.171 89.5189-111.433C89.5189-116.675 85.3475-120.962 80.0274-120.962C74.6854-120.962 70.536-116.675 70.536-111.433C70.536-106.171 74.6854-102 80.0274-102ZM92.075-92.333C91.2844-95.8743 88.9067-98.8214 85.0926-98.7982C81.1229-98.7958 77.3512-95.3414 78.2586-91.3473C81.0333-76.7208 81.0333-62.1466 78.2562-47.5409C77.328-43.4896 81.1205-40.1157 85.0902-40.1133C88.5902-40.1109 91.2796-42.7243 92.0506-46.5588C94.8885-61.863 94.8885-77.1004 92.075-92.333ZM120.841-92.3349C128.779-92.3349 135.178-98.7545 135.178-106.749C135.178-114.824 128.779-121.085 120.841-121.085C112.826-121.085 106.426-114.824 106.426-106.749C106.426-98.7545 112.826-92.3349 120.841-92.3349ZM108.942-71.0022C113.539-71.0022 117.126-74.7054 117.126-79.2445C117.126-83.6239 113.539-87.4076 108.942-87.4076C104.483-87.4076 100.759-83.6823 100.759-79.2445C100.759-74.647 104.483-71.0022 108.942-71.0022ZM175.049-101.245C179.448-101.245 183.094-104.891 183.094-109.429C183.094-113.868 179.448-117.593 175.049-117.593C170.452-117.593 166.807-113.868 166.807-109.429C166.807-104.891 170.452-101.245 175.049-101.245ZM153.731-99.8194L142.091-88.1801C139.342-85.393 139.421-80.9844 142.091-78.2558C144.76-75.5491 149.268-75.4699 151.995-78.1973L163.654-89.8563C166.383-92.5849 166.303-97.0324 163.654-99.8194C160.81-102.547 156.34-102.451 153.731-99.8194ZM128.665-74.0304L95.2865-40.8507C92.5591-38.1428 92.6383-33.6162 95.3449-30.946C98.0151-28.2173 102.503-28.1381 105.211-30.946L138.51-64.2086C140.962-66.6816 141.194-71.225 138.51-73.972C135.703-76.8342 131.197-76.5422 128.665-74.0304ZM181.827-40.9023C187.032-40.9023 191.299-45.0529 191.299-50.395C191.299-55.637 187.09-59.924 181.827-59.924C176.427-59.924 172.278-55.637 172.278-50.395C172.278-45.0529 176.485-40.9023 181.827-40.9023ZM152.774-38.3677C159.724-38.3677 165.379-43.8258 165.379-50.7751C165.379-57.7475 159.782-63.4017 152.774-63.4017C145.804-63.4017 140.345-57.7475 140.345-50.7751C140.345-43.8258 145.804-38.3677 152.774-38.3677ZM177.723-7.45494C182.985-7.45494 187.194-11.6431 187.194-16.9256C187.194-22.2468 182.985-26.417 177.723-26.417C172.461-26.417 168.232-22.2468 168.232-16.9256C168.232-11.6431 172.461-7.45494 177.723-7.45494ZM156.762-27.6564C141.53-30.4323 126.235-30.4907 110.989-27.6528C107.212-26.8027 104.578-24.1341 104.581-20.612C104.605-16.6435 107.957-12.9302 111.971-13.7208C126.634-16.4979 141.15-16.5759 155.778-13.8024C159.692-12.8742 163.284-16.5875 163.286-20.6156C163.288-24.4505 160.246-26.8658 156.762-27.6564Z"/>
  </g>
  <g id="Heavy-L" transform="matrix(1 0 0 1 2534.95 1556)">
   <path d="M123.401 6.95835C143.513-1.45139 125.981-31.8424 110.489-47.3647C94.7568-63.0667 65.6817-81.1382 56.2185-60.2274L17.6839 25.2734C11.858 38.2939 22.8853 49.0326 35.5846 43.7213ZM86.7874-23.5796C71.269-39.0622 65.6855-52.309 68.9798-55.5787C72.2438-58.9176 85.4103-53.2035 100.934-37.7297C116.528-22.2415 121.992-8.99462 118.778-5.77518C115.478-2.40612 102.261-8.06997 86.7874-23.5796ZM78.2287-101.647C83.1627-101.647 87.0528-105.537 87.0528-110.427C87.0528-115.292 83.1627-119.265 78.2287-119.265C73.2589-119.265 69.4046-115.292 69.4046-110.427C69.4046-105.537 73.2589-101.647 78.2287-101.647ZM89.3425-91.4359C88.6292-94.65 86.461-97.344 83.0192-97.3025C79.4681-97.2913 76.0632-94.2147 76.8659-90.6166C79.6549-75.9726 79.6549-61.2507 76.8546-46.5425C76.0218-42.9053 79.4569-39.9092 83.008-39.898C86.1909-39.8867 88.6067-42.2972 89.2955-45.7401C92.1516-61.0669 92.1516-76.2154 89.3425-91.4359ZM118.574-91.701C126.153-91.701 132.248-97.826 132.248-105.444C132.248-113.142 126.153-119.118 118.574-119.118C110.926-119.118 104.825-113.142 104.825-105.444C104.825-97.826 110.926-91.701 118.574-91.701ZM106.659-70.7477C110.87-70.7477 114.167-74.1283 114.167-78.2994C114.167-82.3154 110.87-85.7764 106.659-85.7764C102.563-85.7764 99.1523-82.36 99.1523-78.2994C99.1523-74.0836 102.563-70.7477 106.659-70.7477ZM172.07-100.226C176.111-100.226 179.452-103.568 179.452-107.733C179.452-111.799 176.111-115.216 172.07-115.216C167.854-115.216 164.518-111.799 164.518-107.733C164.518-103.568 167.854-100.226 172.07-100.226ZM151.549-98.0724L139.895-86.4182C137.399-83.9086 137.474-79.9175 139.895-77.4525C142.309-75.0234 146.371-74.9485 148.83-77.4079L160.509-89.0867C162.974-91.5517 162.899-95.5628 160.509-98.0724C157.96-100.532 153.913-100.473 151.549-98.0724ZM126.898-72.8509L93.8429-39.9706C91.3836-37.5358 91.4584-33.4499 93.8876-31.0295C96.3079-28.5645 100.374-28.4897 102.809-31.0295L135.789-64.0014C138.01-66.2521 138.183-70.3223 135.789-72.8063C133.255-75.3448 129.199-75.1216 126.898-72.8509ZM178.596-40.8469C183.447-40.8469 187.396-44.7068 187.396-49.6766C187.396-54.5414 183.491-58.5151 178.596-58.5151C173.582-58.5151 169.728-54.5414 169.728-49.6766C169.728-44.7068 173.627-40.8469 178.596-40.8469ZM150.041-38.2936C156.619-38.2936 161.965-43.4704 161.965-50.0429C161.965-56.6569 156.663-61.9977 150.041-61.9977C143.438-61.9977 138.261-56.6569 138.261-50.0429C138.261-43.4704 143.438-38.2936 150.041-38.2936ZM174.901-7.69625C179.79-7.69625 183.695-11.5706 183.695-16.4901C183.695-21.4297 179.79-25.3142 174.901-25.3142C170.006-25.3142 166.077-21.4297 166.077-16.4901C166.077-11.5706 170.006-7.69625 174.901-7.69625ZM154.369-26.4599C139.149-29.2545 123.961-29.2992 108.679-26.4431C105.275-25.6795 102.834-23.2938 102.851-20.0751C102.893-16.5297 105.853-13.1694 109.481-13.8828C124.228-16.683 138.906-16.7522 153.555-13.9688C157.073-13.136 160.269-16.4963 160.28-20.092C160.292-23.5639 157.544-25.7465 154.369-26.4599Z"/>
  </g>
  <g id="Bold-L" transform="matrix(1 0 0 1 2240.61 1556)">
   <path d="M120.74 5.66068C139.527-2.2025 122.553-31.369 107.627-46.3324C92.5163-61.4055 64.3959-78.6739 55.7252-59.4789L17.4914 25.3508C12.3118 36.9097 22.3248 46.8267 33.7012 42.0768ZM84.242-22.9019C68.8321-38.2606 62.9878-52.0902 66.6966-55.7742C70.3673-59.5121 84.1165-53.545 99.5397-38.1643C115.017-22.7923 120.765-8.96268 117.136-5.32114C113.414-1.54523 99.6228-7.46991 84.242-22.9019ZM76.1121-101.299C80.5473-101.299 84.0692-104.821 84.0692-109.227C84.0692-113.608 80.5473-117.175 76.1121-117.175C71.6258-117.175 68.1551-113.608 68.1551-109.227C68.1551-104.821 71.6258-101.299 76.1121-101.299ZM86.0584-90.3814C85.4448-93.1735 83.5378-95.5226 80.5794-95.4581C77.5582-95.4317 74.6439-92.8313 75.3159-89.7323C78.113-75.1249 78.113-60.2484 75.2895-45.4469C74.5795-42.3321 77.5317-39.812 80.553-39.7856C83.3141-39.7591 85.3918-41.8863 85.9807-44.8376C88.8598-60.195 88.8598-75.1987 86.0584-90.3814ZM115.866-91.0588C122.977-91.0588 128.673-96.7927 128.673-103.92C128.673-111.127 122.977-116.727 115.866-116.727C108.701-116.727 102.992-111.127 102.992-103.92C102.992-96.7927 108.701-91.0588 115.866-91.0588ZM103.958-70.5593C107.67-70.5593 110.591-73.5254 110.591-77.2208C110.591-80.7686 107.67-83.8152 103.958-83.8152C100.33-83.8152 97.3262-80.7978 97.3262-77.2208C97.3262-73.4962 100.33-70.5593 103.958-70.5593ZM168.486-99.1373C172.059-99.1373 175.009-102.087 175.009-105.77C175.009-109.36 172.059-112.377 168.486-112.377C164.761-112.377 161.825-109.36 161.825-105.77C161.825-102.087 164.761-99.1373 168.486-99.1373ZM148.963-95.9951L137.309-84.3403C135.143-82.1839 135.211-78.7375 137.309-76.6103C139.393-74.5342 142.887-74.467 145.001-76.581L156.68-88.2605C158.807-90.3878 158.74-93.8386 156.68-95.9951C154.508-98.1091 151.006-98.0887 148.963-95.9951ZM124.813-71.4431L92.1719-38.9541C90.0579-36.8648 90.1251-33.3468 92.2011-31.2487C94.2991-29.1215 97.8127-29.0543 99.902-31.2487L132.476-63.8446C134.397-65.8039 134.501-69.2751 132.476-71.4139C130.295-73.5528 126.815-73.4067 124.813-71.4431ZM174.72-40.9268C179.11-40.9268 182.652-44.4107 182.652-48.8971C182.652-53.2783 179.139-56.8453 174.72-56.8453C170.204-56.8453 166.734-53.2783 166.734-48.8971C166.734-44.4107 170.233-40.9268 174.72-40.9268ZM146.764-38.3579C152.859-38.3579 157.806-43.1665 157.806-49.248C157.806-55.394 152.888-60.3282 146.764-60.3282C140.644-60.3282 135.836-55.394 135.836-49.248C135.836-43.1665 140.644-38.3579 146.764-38.3579ZM171.487-8.13749C175.893-8.13749 179.406-11.6126 179.406-16.0565C179.406-20.5049 175.893-24.0136 171.487-24.0136C167.068-24.0136 163.53-20.5049 163.53-16.0565C163.53-11.6126 167.068-8.13749 171.487-8.13749ZM151.478-25.0813C136.295-27.8915 121.275-27.9207 105.947-25.0416C103.012-24.3855 100.847-22.3458 100.886-19.5334C100.951-16.5254 103.419-13.6404 106.556-14.254C121.374-17.0774 136.221-17.1314 150.842-14.3476C153.86-13.6376 156.557-16.5227 156.584-19.5731C156.61-22.5695 154.254-24.4676 151.478-25.0813Z"/>
  </g>
  <g id="Semibold-L" transform="matrix(1 0 0 1 1945.53 1556)">
   <path d="M118.905 4.76608C136.779-2.72031 120.189-31.0427 105.655-45.6207C90.9718-60.2602 63.5096-76.975 55.3852-58.9629L17.3587 25.4042C12.6247 35.9554 21.9384 45.3059 32.4028 40.9431ZM82.4873-22.4347C67.1522-37.708 61.1281-51.9394 65.1225-55.9089C69.0736-59.922 83.2246-53.7804 98.5782-38.4638C113.975-23.172 119.919-8.94065 116.005-5.00813C111.992-0.951735 97.8039-7.05624 82.4873-22.4347ZM74.653-101.059C78.7443-101.059 82.0123-104.327 82.0123-108.399C82.0123-112.447 78.7443-115.734 74.653-115.734C70.4999-115.734 67.2937-112.447 67.2937-108.399C67.2937-104.327 70.4999-101.059 74.653-101.059ZM83.7943-89.6545C83.2494-92.1555 81.5226-94.267 78.8974-94.1866C76.2415-94.1497 73.6655-91.8775 74.2474-89.1227C77.05-74.5405 77.05-59.5575 74.2105-44.6917C73.5851-41.9368 76.2045-39.7451 78.8605-39.7081C81.3309-39.6712 83.1755-41.603 83.6955-44.2154C86.5905-59.594 86.5905-74.4977 83.7943-89.6545ZM113.999-90.616C120.788-90.616 126.209-96.0804 126.209-102.869C126.209-109.738 120.788-115.078 113.999-115.078C107.167-115.078 101.728-109.738 101.728-102.869C101.728-96.0804 107.167-90.616 113.999-90.616ZM102.096-70.4294C105.464-70.4294 108.126-73.1098 108.126-76.4772C108.126-79.7023 105.464-82.4631 102.096-82.4631C98.791-82.4631 96.0672-79.7208 96.0672-76.4772C96.0672-73.0913 98.791-70.4294 102.096-70.4294ZM166.015-98.3867C169.265-98.3867 171.946-101.067 171.946-104.416C171.946-107.678 169.265-110.42 166.015-110.42C162.629-110.42 159.967-107.678 159.967-104.416C159.967-101.067 162.629-98.3867 166.015-98.3867ZM147.181-94.5629L135.526-82.9078C133.588-80.9949 133.65-77.924 135.526-76.0296C137.383-74.197 140.485-74.1351 142.361-76.011L154.041-87.691C155.935-89.5854 155.873-92.65 154.041-94.5629C152.128-96.4389 149.001-96.4451 147.181-94.5629ZM123.375-70.4725L91.0199-38.2532C89.1439-36.4022 89.2059-33.2757 91.0384-31.3999C92.9143-29.5055 96.0471-29.4435 97.8981-31.3999L130.192-63.7366C131.906-65.4948 131.962-68.5532 130.192-70.454C128.254-72.3174 125.171-72.2245 123.375-70.4725ZM172.047-40.9819C176.12-40.9819 179.382-44.2066 179.382-48.3597C179.382-52.4075 176.139-55.6942 172.047-55.6942C167.876-55.6942 164.669-52.4075 164.669-48.3597C164.669-44.2066 167.894-40.9819 172.047-40.9819ZM144.505-38.4022C150.266-38.4022 154.939-42.9569 154.939-48.7C154.939-54.5233 150.285-59.1772 144.505-59.1772C138.719-59.1772 134.164-54.5233 134.164-48.7C134.164-42.9569 138.719-38.4022 144.505-38.4022ZM169.133-8.44168C173.206-8.44168 176.449-11.6416 176.449-15.7576C176.449-19.8674 173.206-23.1169 169.133-23.1169C165.042-23.1169 161.774-19.8674 161.774-15.7576C161.774-11.6416 165.042-8.44168 169.133-8.44168ZM149.484-24.1308C134.328-26.9518 119.424-26.9704 104.064-24.0754C101.451-23.4935 99.4761-21.6922 99.5316-19.16C99.6119-16.5225 101.742-13.965 104.54-14.5099C119.406-17.3494 134.37-17.3928 148.971-14.6088C151.645-13.9834 153.998-16.5409 154.035-19.2154C154.072-21.8839 151.985-23.586 149.484-24.1308Z"/>
  </g>
  <g id="Medium-L" transform="matrix(1 0 0 1 1650.06 1556)">
   <path d="M117.513 4.08776C134.696-3.11293 118.397-30.7953 104.159-45.081C89.8006-59.3919 62.8375-75.6868 55.1274-58.5716L17.2581 25.4447C12.862 35.2318 21.6454 44.1528 31.4183 40.0835ZM81.1568-22.0804C65.8784-37.2889 59.7179-51.825 63.929-56.0111C68.0927-60.2327 82.5483-53.9589 97.8492-38.691C113.186-23.46 119.278-8.92395 115.147-4.77079C110.913-0.501722 96.4247-6.74257 81.1568-22.0804ZM73.5466-100.876C77.3771-100.876 80.4527-103.952 80.4527-107.772C80.4527-111.567 77.3771-114.641 73.5466-114.641C69.6462-114.641 66.6405-111.567 66.6405-107.772C66.6405-103.952 69.6462-100.876 73.5466-100.876ZM82.0775-89.1033C81.5849-91.3837 79.9945-93.3149 77.6221-93.2225C75.2431-93.1776 72.9235-91.1543 73.4372-88.6605C76.2439-74.0974 76.2439-59.0336 73.3923-44.119C72.8312-41.6372 75.1981-39.6943 77.5772-39.6494C79.8271-39.6045 81.495-41.3882 81.9627-43.7436C84.8698-59.1383 84.8698-73.9663 82.0775-89.1033ZM112.584-90.2803C119.128-90.2803 124.34-95.5403 124.34-102.072C124.34-108.684 119.128-113.828 112.584-113.828C106.004-113.828 100.77-108.684 100.77-102.072C100.77-95.5403 106.004-90.2803 112.584-90.2803ZM100.685-70.331C103.791-70.331 106.256-72.7947 106.256-75.9134C106.256-78.8937 103.791-81.4379 100.685-81.4379C97.6238-81.4379 95.1126-78.9042 95.1126-75.9134C95.1126-72.7842 97.6238-70.331 100.685-70.331ZM164.142-97.8175C167.147-97.8175 169.623-100.293 169.623-103.389C169.623-106.403 167.147-108.936 164.142-108.936C161.013-108.936 158.559-106.403 158.559-103.389C158.559-100.293 161.013-97.8175 164.142-97.8175ZM145.829-93.4771L134.174-81.8216C132.409-80.0933 132.467-77.3071 134.174-75.5893C135.859-73.9413 138.664-73.8834 140.359-75.5788L152.039-87.2592C153.757-88.977 153.699-91.7487 152.039-93.4771C150.323-95.1724 147.481-95.1989 145.829-93.4771ZM122.285-69.7366L90.1464-37.7219C88.451-36.0514 88.5089-33.2218 90.1569-31.5145C91.8642-29.7966 94.7083-29.7387 96.3787-31.5145L128.459-63.6546C130.018-65.2605 130.037-68.0058 128.459-69.7261C126.706-71.3806 123.924-71.3281 122.285-69.7366ZM170.021-41.0237C173.853-41.0237 176.902-44.0518 176.902-47.9522C176.902-51.7473 173.863-54.8214 170.021-54.8214C166.11-54.8214 163.104-51.7473 163.104-47.9522C163.104-44.0518 166.12-41.0237 170.021-41.0237ZM142.792-38.4358C148.301-38.4358 152.765-42.7981 152.765-48.2844C152.765-53.8632 148.311-58.3044 142.792-58.3044C137.258-58.3044 132.896-53.8632 132.896-48.2844C132.896-42.7981 137.258-38.4358 142.792-38.4358ZM167.348-8.67233C171.168-8.67233 174.207-11.6635 174.207-15.531C174.207-19.384 171.168-22.437 167.348-22.437C163.506-22.437 160.442-19.384 160.442-15.531C160.442-11.6635 163.506-8.67233 167.348-8.67233ZM147.973-23.4102C132.836-26.2393 118.02-26.2498 102.636-23.3428C100.268-22.8171 98.4371-21.1967 98.5045-18.8768C98.5968-16.5202 100.47-14.2112 103.011-14.7039C117.914-17.5555 132.967-17.591 147.552-14.8068C149.966-14.2456 152.058-16.5547 152.103-18.9442C152.147-21.3641 150.265-22.9175 147.973-23.4102Z"/>
  </g>
  <g id="Regular-L" transform="matrix(1 0 0 1 1354.97 1556)">
   <path d="M115.698 3.20299C131.978-3.62505 116.06-30.4726 102.208-44.3772C88.273-58.2592 61.9608-74.0066 54.7911-58.0613L17.1269 25.4976C13.1714 34.288 21.2632 42.6488 30.1341 38.9622ZM79.4213-21.6183C64.2169-36.7424 57.8786-51.6758 62.3723-56.1444C66.8133-60.6381 81.6662-54.1917 96.8984-38.9873C112.156-23.8356 118.441-8.90217 114.028-4.46122C109.506 0.085251 94.6258-6.33344 79.4213-21.6183ZM72.1035-100.639C75.5939-100.639 78.4184-103.463 78.4184-106.954C78.4184-110.419 75.5939-113.216 72.1035-113.216C68.5327-113.216 65.7886-110.419 65.7886-106.954C65.7886-103.463 68.5327-100.639 72.1035-100.639ZM79.8383-88.3843C79.4137-90.377 78.0014-92.073 75.9586-91.965C73.9408-91.9096 71.9558-90.211 72.3805-88.0575C75.1926-73.5194 75.1926-58.3502 72.3252-43.3721C71.8477-41.2463 73.8855-39.6281 75.9033-39.5728C77.8657-39.5174 79.3031-41.108 79.7026-43.1283C82.6254-58.5438 82.6254-73.273 79.8383-88.3843ZM110.737-89.8425C116.962-89.8425 121.903-94.8358 121.903-101.033C121.903-107.31 116.962-112.198 110.737-112.198C104.488-112.198 99.5195-107.31 99.5195-101.033C99.5195-94.8358 104.488-89.8425 110.737-89.8425ZM98.8429-70.2025C101.61-70.2025 103.818-72.3837 103.818-75.178C103.818-77.8391 101.61-80.1007 98.8429-80.1007C96.1014-80.1007 93.8675-77.8391 93.8675-75.178C93.8675-72.3837 96.1014-70.2025 98.8429-70.2025ZM161.698-97.0752C164.384-97.0752 166.593-99.284 166.593-102.051C166.593-104.739 164.384-107.001 161.698-107.001C158.904-107.001 156.723-104.739 156.723-102.051C156.723-99.284 158.904-97.0752 161.698-97.0752ZM144.067-92.0607L132.411-80.4049C130.87-78.9173 130.923-76.5026 132.411-75.015C133.871-73.6078 136.288-73.5551 137.748-75.015L149.429-86.6959C150.916-88.1835 150.864-90.5731 149.429-92.0607C147.969-93.5206 145.499-93.5734 144.067-92.0607ZM120.863-68.7768L89.007-37.0287C87.5471-35.5939 87.5999-33.1515 89.007-31.664C90.4946-30.1764 92.9621-30.1236 94.3969-31.664L126.2-63.5477C127.555-64.9549 127.527-67.2917 126.2-68.7768C124.688-70.1588 122.298-70.1588 120.863-68.7768ZM167.378-41.0782C170.896-41.0782 173.668-43.8499 173.668-47.4208C173.668-50.8861 170.896-53.6829 167.378-53.6829C163.807-53.6829 161.063-50.8861 161.063-47.4208C161.063-43.8499 163.807-41.0782 167.378-41.0782ZM140.558-38.4796C145.737-38.4796 149.929-42.5909 149.929-47.7424C149.929-53.0021 145.737-57.1661 140.558-57.1661C135.354-57.1661 131.242-53.0021 131.242-47.7424C131.242-42.5909 135.354-38.4796 140.558-38.4796ZM165.02-8.97318C168.511-8.97318 171.283-11.6922 171.283-15.2353C171.283-18.7534 168.511-21.5503 165.02-21.5503C161.502-21.5503 158.706-18.7534 158.706-15.2353C158.706-11.6922 161.502-8.97318 165.02-8.97318ZM146.001-22.4702C130.89-25.31 116.189-25.31 100.773-22.3872C98.7251-21.9349 97.0818-20.5503 97.1647-18.5074C97.2728-16.5173 98.8106-14.5324 101.017-14.957C115.967-17.8245 131.136-17.8496 145.702-15.0651C147.775-14.5877 149.527-16.5727 149.582-18.5904C149.637-20.686 148.022-22.0455 146.001-22.4702Z"/>
  </g>
  <g id="Light-L" transform="matrix(1 0 0 1 1059.6 1556)">
   <path d="M114.515 2.11513C130.375-4.54115 113.96-31.1024 100.872-44.2245C87.6432-57.4195 61.5982-73.434 54.7529-58.1949L17.0696 25.4212C13.3813 33.5628 20.7861 41.2555 29.0081 37.8553ZM78.0663-21.4656C62.7473-36.7042 56.1418-52.2865 61.0173-57.175C65.859-62.0504 81.3609-55.3178 96.7266-39.9988C112.079-24.7135 118.651-9.13119 113.856-4.28945C108.934 0.619639 93.3853-6.06624 78.0663-21.4656ZM71.3592-100.963C74.3725-100.963 76.8153-103.406 76.8153-106.419C76.8153-109.446 74.3725-111.842 71.3592-111.842C68.2655-111.842 65.9031-109.446 65.9031-106.419C65.9031-103.406 68.2655-100.963 71.3592-100.963ZM78.2161-88.0217C77.8869-89.6135 76.6655-90.8707 75.0997-90.7435C73.5209-90.65 72.1085-89.3331 72.4377-87.5804C75.1926-73.443 75.1926-58.3502 72.3443-43.5248C71.9813-41.8188 73.4275-40.5823 75.0063-40.4889C76.4916-40.3954 77.6999-41.5851 78.0422-43.2237C80.9841-58.6774 80.9841-73.0822 78.2161-88.0217ZM109.516-90.3196C115.264-90.3196 119.784-94.8739 119.784-100.575C119.784-106.356 115.264-110.843 109.516-110.843C103.781-110.843 99.2141-106.356 99.2141-100.575C99.2141-94.8739 103.781-90.3196 109.516-90.3196ZM97.7933-70.8896C100.083-70.8896 101.929-72.6891 101.929-75.0253C101.929-77.2475 100.083-79.1273 97.7933-79.1273C95.4907-79.1273 93.6576-77.2475 93.6576-75.0253C93.6576-72.6891 95.4907-70.8896 97.7933-70.8896ZM159.904-97.4378C162.113-97.4378 163.959-99.284 163.959-101.573C163.959-103.842 162.113-105.722 159.904-105.722C157.568-105.722 155.768-103.842 155.768-101.573C155.768-99.284 157.568-97.4378 159.904-97.4378ZM143.036-91.1828L131.495-79.6415C130.279-78.4593 130.313-76.598 131.495-75.4158C132.63-74.314 134.551-74.2803 135.687-75.4158L147.215-86.944C148.397-88.1262 148.363-90.0005 147.215-91.1828C146.079-92.3182 144.125-92.3519 143.036-91.1828ZM120.081-68.1469L88.6062-36.7997C87.4707-35.6512 87.5044-33.7432 88.6062-32.561C89.7884-31.3788 91.6834-31.3451 92.8319-32.561L124.273-64.0821C125.341-65.1839 125.294-67.0245 124.273-68.1469C123.103-69.2618 121.229-69.2618 120.081-68.1469ZM165.507-42.0897C168.567-42.0897 170.977-44.4988 170.977-47.5925C170.977-50.6189 168.567-53.0149 165.507-53.0149C162.414-53.0149 160.051-50.6189 160.051-47.5925C160.051-44.4988 162.414-42.0897 165.507-42.0897ZM138.993-39.5293C143.695-39.5293 147.505-43.2588 147.505-47.9142C147.505-52.6967 143.695-56.4599 138.993-56.4599C134.304-56.4599 130.574-52.6967 130.574-47.9142C130.574-43.2588 134.304-39.5293 138.993-39.5293ZM163.188-10.1946C166.202-10.1946 168.611-12.5701 168.611-15.617C168.611-18.6771 166.202-21.0731 163.188-21.0731C160.128-21.0731 157.732-18.6771 157.732-15.617C157.732-12.5701 160.128-10.1946 163.188-10.1946ZM144.475-22.1839C129.535-24.9855 115.177-24.9855 99.7233-22.0437C98.038-21.6677 96.8146-20.4931 96.9548-18.9273C97.0819-17.3953 98.238-15.9828 100.024-16.3121C114.803-19.1604 129.896-19.1474 144.08-16.4392C145.752-16.0763 147.103-17.4888 147.196-19.0675C147.29-20.667 146.113-21.8547 144.475-22.1839Z"/>
  </g>
  <g id="Thin-L" transform="matrix(1 0 0 1 764.671 1556)">
   <path d="M112.95 0.676344C128.255-5.75275 111.184-31.9354 99.1049-44.0225C86.8102-56.3088 61.1186-72.6768 54.7024-58.3716L16.9939 25.3202C13.659 32.6036 20.155 39.4129 27.5188 36.3912ZM76.2741-21.2637C60.8037-36.6537 53.8448-53.0942 59.2251-58.538C64.5969-63.9183 80.957-56.807 96.4994-41.3366C111.978-25.8746 118.929-9.43409 113.629-4.06228C108.177 1.32641 91.7445-5.71286 76.2741-21.2637ZM70.3748-101.392C72.757-101.392 74.695-103.33 74.695-105.713C74.695-108.158 72.757-110.024 70.3748-110.024C67.9121-110.024 66.0546-108.158 66.0546-105.713C66.0546-103.33 67.9121-101.392 70.3748-101.392ZM76.0705-87.5421C75.8675-88.6039 74.8985-89.2804 73.9639-89.128C72.9656-88.9841 72.3104-88.172 72.5135-86.9494C75.1926-73.3421 75.1926-58.3502 72.3695-43.7267C72.158-42.5761 72.8217-41.8444 73.8199-41.7005C74.6742-41.5565 75.5796-42.2162 75.8462-43.3499C78.8133-58.8541 78.8133-72.8297 76.0705-87.5421ZM107.901-90.9506C113.017-90.9506 116.982-94.9244 116.982-99.9689C116.982-105.094 113.017-109.051 107.901-109.051C102.848-109.051 98.8102-105.094 98.8102-99.9689C98.8102-94.9244 102.848-90.9506 107.901-90.9506ZM96.405-71.7983C98.0634-71.7983 99.43-73.0929 99.43-74.8234C99.43-76.465 98.0634-77.84 96.405-77.84C94.6829-77.84 93.3799-76.465 93.3799-74.8234C93.3799-73.0929 94.6829-71.7983 96.405-71.7983ZM157.531-97.9174C159.109-97.9174 160.476-99.284 160.476-100.942C160.476-102.656 159.109-104.031 157.531-104.031C155.801-104.031 154.506-102.656 154.506-100.942C154.506-99.284 155.801-97.9174 157.531-97.9174ZM141.673-90.0216L130.283-78.6318C129.496-77.8535 129.505-76.7242 130.283-75.9459C130.989-75.2479 132.254-75.2395 132.961-75.9459L144.287-87.2721C145.065-88.0505 145.057-89.2433 144.287-90.0216C143.581-90.728 142.307-90.7364 141.673-90.0216ZM119.046-67.314L88.0761-36.4968C87.3698-35.7269 87.3782-34.5257 88.0761-33.7473C88.8545-32.969 89.9922-32.9605 90.7621-33.7473L121.723-64.7889C122.413-65.4868 122.341-66.6712 121.723-67.314C121.008-68.0754 119.816-68.0754 119.046-67.314ZM163.034-43.4275C165.488-43.4275 167.417-45.357 167.417-47.8197C167.417-50.2655 165.488-52.1315 163.034-52.1315C160.571-52.1315 158.714-50.2655 158.714-47.8197C158.714-45.357 160.571-43.4275 163.034-43.4275ZM136.923-40.9176C140.994-40.9176 144.299-44.1423 144.299-48.1414C144.299-52.2929 140.994-55.526 136.923-55.526C132.916-55.526 129.691-52.2929 129.691-48.1414C129.691-44.1423 132.916-40.9176 136.923-40.9176ZM160.765-11.8101C163.147-11.8101 165.077-13.7312 165.077-16.1219C165.077-18.5761 163.147-20.4421 160.765-20.4421C158.311-20.4421 156.445-18.5761 156.445-16.1219C156.445-13.7312 158.311-11.8101 160.765-11.8101ZM142.455-21.8053C127.743-24.5564 113.839-24.5564 98.335-21.5893C97.1293-21.3143 96.4612-20.4173 96.6771-19.4826C96.8295-18.5564 97.4808-17.9012 98.7118-18.1042C113.263-20.9274 128.255-20.8638 141.934-18.2566C143.077-18.0452 143.897-18.7004 144.041-19.6986C144.185-20.6417 143.589-21.6023 142.455-21.8053Z"/>
  </g>
  <g id="Ultralight-L" transform="matrix(1 0 0 1 468.872 1556)">
   <path d="M112.149-0.0605937C127.169-6.37333 109.762-32.362 98.1999-43.9191C86.3836-55.7399 60.8729-72.2889 54.6766-58.4621L16.9551 25.2685C13.8012 32.1123 19.8318 38.4691 26.756 35.6414ZM75.3562-21.1603C59.8082-36.6279 52.6683-53.5079 58.3071-59.2362C63.9505-64.875 80.7501-57.5698 96.3831-42.0218C111.927-26.4693 119.071-9.58924 113.512-3.94592C107.789 1.68841 90.9042-5.53185 75.3562-21.1603ZM69.8705-101.612C71.9296-101.612 73.609-103.291 73.609-105.351C73.609-107.499 71.9296-109.093 69.8705-109.093C67.7311-109.093 66.1321-107.499 66.1321-105.351C66.1321-103.291 67.7311-101.612 69.8705-101.612ZM74.9716-87.2965C74.8332-88.0867 73.9935-88.4659 73.3821-88.3006C72.6812-88.1308 72.4139-87.5773 72.5522-86.6261C75.1926-73.2904 75.1926-58.3502 72.3824-43.8302C72.2485-42.964 72.5114-42.4909 73.2122-42.321C73.7433-42.1512 74.4936-42.5394 74.7214-43.4146C77.7014-58.9446 77.7014-72.7005 74.9716-87.2965ZM107.073-91.2739C111.866-91.2739 115.547-94.9503 115.547-99.6587C115.547-104.447 111.866-108.133 107.073-108.133C102.369-108.133 98.6034-104.447 98.6034-99.6587C98.6034-94.9503 102.369-91.2739 107.073-91.2739ZM95.6939-72.2638C97.0291-72.2638 98.1501-73.2998 98.1501-74.7199C98.1501-76.0642 97.0291-77.1806 95.6939-77.1806C94.2692-77.1806 93.2377-76.0642 93.2377-74.7199C93.2377-73.2998 94.2692-72.2638 95.6939-72.2638ZM156.316-98.163C157.571-98.163 158.692-99.284 158.692-100.619C158.692-102.048 157.571-103.165 156.316-103.165C154.896-103.165 153.86-102.048 153.86-100.619C153.86-99.284 154.896-98.163 156.316-98.163ZM140.975-89.4269L129.663-78.1147C129.096-77.5432 129.091-76.7888 129.663-76.2174C130.149-75.7263 131.078-75.7308 131.564-76.2174L142.787-87.4402C143.359-88.0117 143.363-88.8554 142.787-89.4269C142.301-89.9135 141.376-89.909 140.975-89.4269ZM118.516-66.8873L87.8046-36.3417C87.3181-35.7657 87.3136-34.9265 87.8046-34.355C88.3761-33.7835 89.126-33.788 89.7019-34.355L120.417-65.1509C120.913-65.6419 120.828-66.4902 120.417-66.8873C119.935-67.4678 119.092-67.4678 118.516-66.8873ZM161.767-44.1127C163.911-44.1127 165.595-45.7966 165.595-47.9361C165.595-50.0845 163.911-51.679 161.767-51.679C159.627-51.679 158.028-50.0845 158.028-47.9361C158.028-45.7966 159.627-44.1127 161.767-44.1127ZM135.863-41.6287C139.611-41.6287 142.657-44.5948 142.657-48.2577C142.657-52.086 139.611-55.0476 135.863-55.0476C132.205-55.0476 129.238-52.086 129.238-48.2577C129.238-44.5948 132.205-41.6287 135.863-41.6287ZM159.524-12.6375C161.583-12.6375 163.267-14.3259 163.267-16.3805C163.267-18.5244 161.583-20.1189 159.524-20.1189C157.38-20.1189 155.786-18.5244 155.786-16.3805C155.786-14.3259 157.38-12.6375 159.524-12.6375ZM141.421-21.6113C126.825-24.3366 113.154-24.3366 97.624-21.3566C96.6639-21.1333 96.2802-20.3785 96.5349-19.7671C96.7002-19.1511 97.0929-18.8838 98.0395-19.0222C112.475-21.8324 127.415-21.743 140.836-19.1875C141.706-19.0536 142.255-19.3209 142.425-20.0218C142.595-20.6288 142.296-21.473 141.421-21.6113Z"/>
  </g>
  <g id="Black-M" transform="matrix(1 0 0 1 2851.57 1126)">
   <path d="M99.0901-1.01938C116.463-8.27473 101.897-33.5112 89.3259-46.0873C76.4707-58.9371 52.6413-74.202 44.2623-55.7353L13.9621 11.5055C8.59532 23.5075 18.3866 32.8002 29.937 27.9626ZM70.495-27.1419C58.2747-39.3569 54.2391-48.9893 56.3157-51.0601C58.3869-53.1939 67.9569-49.0391 80.1769-36.876C92.4597-24.6612 96.3757-15.0289 94.3613-13.0148C92.285-10.8756 82.6581-14.9735 70.495-27.1419ZM63.4457-87.3057C67.8345-87.3057 71.2563-90.7275 71.2563-95.0593C71.2563-99.3852 67.8345-102.922 63.4457-102.922C59.0516-102.922 55.635-99.3852 55.635-95.0593C55.635-90.7275 59.0516-87.3057 63.4457-87.3057ZM73.4629-80.1919C72.797-83.1623 70.8006-85.6037 67.5903-85.5987C64.2146-85.5993 61.0548-82.6501 61.8349-79.2697C63.9645-68.0072 63.9645-56.8534 61.8355-45.6465C61.0498-42.2087 64.2151-39.3218 67.5909-39.3223C70.5105-39.3229 72.7981-41.4678 73.4583-44.7234C75.6439-56.5659 75.6439-68.4034 73.4629-80.1919ZM95.4042-80.0809C101.797-80.0809 106.959-85.2481 106.959-91.6985C106.959-98.2112 101.797-103.253 95.4042-103.253C88.9484-103.253 83.787-98.2112 83.787-91.6985C83.787-85.2481 88.9484-80.0809 95.4042-80.0809ZM86.2221-63.2559C90.0502-63.2559 93.0304-66.3506 93.0304-70.1213C93.0304-73.7671 90.0502-76.9241 86.2221-76.9241C82.5139-76.9241 79.4138-73.8242 79.4138-70.1213C79.4138-66.2935 82.5139-63.2559 86.2221-63.2559ZM137.935-87.2991C141.587-87.2991 144.624-90.3364 144.624-94.1074C144.624-97.8101 141.587-100.91 137.935-100.91C134.107-100.91 131.07-97.8101 131.07-94.1074C131.07-90.3364 134.107-87.2991 137.935-87.2991ZM120.837-86.6524L111.848-77.6632C109.543-75.307 109.606-71.6075 111.848-69.3083C114.091-67.0144 117.898-66.9518 120.198-69.2512L129.193-78.2462C131.492-80.5454 131.429-84.2962 129.193-86.6524C126.779-88.9519 123.023-88.8432 120.837-86.6524ZM101.094-66.2186L75.0088-40.3097C72.7093-38.016 72.7719-34.2027 75.0659-31.9606C77.308-29.6614 81.07-29.5988 83.3637-31.9606L109.386-57.9312C111.446-59.9968 111.675-63.8563 109.386-66.1615C107.024-68.621 103.216-68.3355 101.094-66.2186ZM143.393-39.8091C147.667-39.8091 151.198-43.2254 151.198-47.6195C151.198-51.9455 147.724-55.4817 143.393-55.4817C138.942-55.4817 135.525-51.9455 135.525-47.6195C135.525-43.2254 138.999-39.8091 143.393-39.8091ZM120.497-37.8667C126.137-37.8667 130.732-42.2854 130.732-47.9258C130.732-53.5712 126.194-58.1666 120.497-58.1666C114.851-58.1666 110.432-53.5712 110.432-47.9258C110.432-42.2854 114.851-37.8667 120.497-37.8667ZM139.867-13.6695C144.199-13.6695 147.672-17.1374 147.672-21.4746C147.672-25.8632 144.199-29.2853 139.867-29.2853C135.536-29.2853 132.057-25.8632 132.057-21.4746C132.057-17.1374 135.536-13.6695 139.867-13.6695ZM123.3-30.3519C111.512-32.4812 99.617-32.5383 87.8316-30.3527C84.6334-29.63 82.483-27.3478 82.4822-24.423C82.4871-21.047 85.3688-17.9443 88.7547-18.6102C100.019-20.7393 111.116-20.8021 122.378-18.6722C125.696-17.8866 128.765-20.9893 128.764-24.4222C128.764-27.6379 126.213-29.6859 123.3-30.3519Z"/>
  </g>
  <g id="Heavy-M" transform="matrix(1 0 0 1 2556.64 1126)">
   <path d="M97.0181-1.91971C113.324-8.73432 99.3516-32.9623 87.1123-45.218C74.6481-57.6658 51.5955-72.1715 43.8395-55.0525L13.8062 11.5896C8.94684 22.4536 17.9993 31.1717 28.533 26.7633ZM68.5617-26.5824C56.4609-38.6646 52.2547-48.6669 54.6116-51.0096C56.952-53.41 66.8919-49.0957 78.9951-37.0384C91.1559-24.954 95.2584-14.9517 92.9639-12.6549C90.6048-10.2381 80.6189-14.5065 68.5617-26.5824ZM61.7559-86.9315C65.8114-86.9315 68.9934-90.1135 68.9934-94.1253C68.9934-98.123 65.8114-101.39 61.7559-101.39C57.6818-101.39 54.5185-98.123 54.5185-94.1253C54.5185-90.1135 57.6818-86.9315 61.7559-86.9315ZM70.9414-79.3483C70.3422-82.0359 68.533-84.2703 65.6427-84.2493C62.6357-84.2448 59.7816-81.6297 60.4681-78.5994C62.617-67.2828 62.617-55.9775 60.4636-44.6563C59.7607-41.5847 62.6311-39.0319 65.6382-39.0273C68.2917-39.0228 70.3331-41.0062 70.9182-43.9142C73.1198-55.7753 73.1198-67.5559 70.9414-79.3483ZM93.3002-79.4172C99.3868-79.4172 104.29-84.3369 104.29-90.4648C104.29-96.655 99.3868-101.455 93.3002-101.455C87.1559-101.455 82.2503-96.655 82.2503-90.4648C82.2503-84.3369 87.1559-79.4172 93.3002-79.4172ZM84.0872-62.9437C87.5819-62.9437 90.3114-65.7582 90.3114-69.2115C90.3114-72.5425 87.5819-75.4193 84.0872-75.4193C80.6939-75.4193 77.863-72.5861 77.863-69.2115C77.863-65.7146 80.6939-62.9437 84.0872-62.9437ZM135.188-86.2697C138.534-86.2697 141.307-89.0429 141.307-92.4939C141.307-95.8708 138.534-98.704 135.188-98.704C131.691-98.704 128.921-95.8708 128.921-92.4939C128.921-89.0429 131.691-86.2697 135.188-86.2697ZM118.799-85.0257L109.785-76.0114C107.699-73.8981 107.759-70.5558 109.785-68.4862C111.809-66.4352 115.226-66.3752 117.294-68.4426L126.322-77.471C128.392-79.5406 128.332-82.9124 126.322-85.0257C124.168-87.093 120.777-87.0222 118.799-85.0257ZM99.4395-65.1236L73.6346-39.4706C71.5672-37.4174 71.6273-33.9855 73.6782-31.9595C75.7042-29.8899 79.1066-29.8299 81.1598-31.9595L106.905-57.6794C108.765-59.5559 108.937-62.9985 106.905-65.08C104.777-67.2477 101.362-67.0296 99.4395-65.1236ZM140.407-39.6617C144.377-39.6617 147.63-42.8273 147.63-46.9014C147.63-50.8991 144.421-54.1661 140.407-54.1661C136.289-54.1661 133.126-50.8991 133.126-46.9014C133.126-42.8273 136.333-39.6617 140.407-39.6617ZM117.97-37.6974C123.29-37.6974 127.618-41.8763 127.618-47.1942C127.618-52.5331 123.333-56.8593 117.97-56.8593C112.635-56.8593 108.456-52.5331 108.456-47.1942C108.456-41.8763 112.635-37.6974 117.97-37.6974ZM137.277-13.7927C141.289-13.7927 144.498-16.9855 144.498-21.0137C144.498-25.0714 141.289-28.2512 137.277-28.2512C133.263-28.2512 130.04-25.0714 130.04-21.0137C130.04-16.9855 133.263-13.7927 137.277-13.7927ZM121.102-29.2086C109.309-31.3598 97.4872-31.4034 85.6697-29.2018C82.8031-28.5566 80.8033-26.5317 80.8101-23.8594C80.8311-20.8547 83.3652-18.0443 86.4119-18.6435C97.7744-20.797 109.036-20.8547 120.355-18.7081C123.323-18.0052 126.042-20.8156 126.046-23.8663C126.051-26.773 123.748-28.6093 121.102-29.2086Z"/>
  </g>
  <g id="Bold-M" transform="matrix(1 0 0 1 2261.93 1126)">
   <path d="M94.7004-2.92685C109.813-9.24845 96.5046-32.3482 84.636-44.2455C72.6092-56.2436 50.4258-69.9 43.3665-54.2887L13.6318 11.6836C9.34007 21.2747 17.566 29.3501 26.9624 25.4217ZM66.3991-25.9566C54.4318-37.8901 50.0349-48.3062 52.7052-50.953C55.3468-53.6518 65.7006-49.1589 77.673-37.2202C89.6974-25.2815 94.0087-14.8655 91.4007-12.2524C88.7252-9.5249 78.3378-13.9841 66.3991-25.9566ZM59.8657-86.5128C63.5482-86.5128 66.462-89.4266 66.462-93.0805C66.462-96.7109 63.5482-99.6767 59.8657-99.6767C56.1495-99.6767 53.2695-96.7109 53.2695-93.0805C53.2695-89.4266 56.1495-86.5128 59.8657-86.5128ZM68.1207-78.4047C67.5961-80.7759 65.9964-82.7787 63.464-82.7398C60.8694-82.7295 58.3575-80.4882 58.9392-77.8496C61.1097-66.4725 61.1097-54.9977 58.929-43.5487C58.3186-40.8867 60.8592-38.7076 63.4538-38.6973C65.8097-38.6871 67.5755-40.4899 68.0767-43.009C70.2963-54.8909 70.2963-66.6078 68.1207-78.4047ZM90.9466-78.6747C96.6903-78.6747 101.305-83.3177 101.305-89.0848C101.305-94.9142 96.6903-99.4428 90.9466-99.4428C85.1509-99.4428 80.5314-94.9142 80.5314-89.0848C80.5314-83.3177 85.1509-78.6747 90.9466-78.6747ZM81.699-62.5945C84.8207-62.5945 87.2698-65.0955 87.2698-68.1938C87.2698-71.1726 84.8207-73.7359 81.699-73.7359C78.6579-73.7359 76.1283-71.2012 76.1283-68.1938C76.1283-65.0669 78.6579-62.5945 81.699-62.5945ZM132.116-85.1182C135.118-85.1182 137.596-87.5958 137.596-90.689C137.596-93.7015 135.118-96.2362 132.116-96.2362C128.989-96.2362 126.517-93.7015 126.517-90.689C126.517-87.5958 128.989-85.1182 132.116-85.1182ZM116.52-83.2059L107.477-74.1635C105.636-72.3221 105.693-69.3793 107.477-67.5665C109.256-65.7874 112.238-65.7302 114.046-67.5379L123.111-76.6038C124.924-78.4166 124.867-81.3645 123.111-83.2059C121.247-85.0136 118.265-84.9851 116.52-83.2059ZM97.5888-63.8987L72.0973-38.5318C70.2896-36.7476 70.3468-33.7426 72.1259-31.9583C73.9102-30.1454 76.9102-30.0883 78.6944-31.9583L104.129-57.3978C105.765-59.0626 105.874-62.039 104.129-63.8702C102.264-65.7114 99.2873-65.5687 97.5888-63.8987ZM137.067-39.4967C140.697-39.4967 143.639-42.3819 143.639-46.0981C143.639-49.7285 140.726-52.6943 137.067-52.6943C133.322-52.6943 130.442-49.7285 130.442-46.0981C130.442-42.3819 133.35-39.4967 137.067-39.4967ZM115.142-37.508C120.105-37.508 124.135-41.4187 124.135-46.3759C124.135-51.3719 120.133-55.3969 115.142-55.3969C110.157-55.3969 106.246-51.3719 106.246-46.3759C106.246-41.4187 110.157-37.508 115.142-37.508ZM134.38-13.9305C138.034-13.9305 140.947-16.8156 140.947-20.4982C140.947-24.1857 138.034-27.0944 134.38-27.0944C130.721-27.0944 127.784-24.1857 127.784-20.4982C127.784-16.8156 130.721-13.9305 134.38-13.9305ZM118.642-27.9297C106.845-30.1053 95.1048-30.1338 83.2514-27.9143C80.7557-27.3559 78.9243-25.6187 78.9397-23.229C78.9786-20.6395 81.1239-18.1561 83.7911-18.6808C95.2636-20.8615 106.71-20.9136 118.092-18.7482C120.668-18.1379 122.995-20.6213 123.006-23.2444C123.016-25.8054 120.99-27.405 118.642-27.9297Z"/>
  </g>
  <g id="Semibold-M" transform="matrix(1 0 0 1 1966.59 1126)">
   <path d="M93.1025-3.62117C107.392-9.60288 94.5419-31.9249 82.9288-43.575C71.2036-55.2632 49.6193-68.3341 43.0404-53.7621L13.5116 11.7485C9.61115 20.462 17.2673 28.0943 25.8797 24.4968ZM64.9082-25.5252C53.033-37.3562 48.5046-48.0575 51.3909-50.914C54.2403-53.8185 64.8793-49.2025 76.7616-37.3455C88.692-25.5073 93.1471-14.806 90.323-11.9748C87.4295-9.03325 76.7652-13.624 64.9082-25.5252ZM58.5626-86.2242C61.988-86.2242 64.7168-88.9531 64.7168-92.3602C64.7168-95.7375 61.988-98.4956 58.5626-98.4956C55.0931-98.4956 52.4084-95.7375 52.4084-92.3602C52.4084-88.9531 55.0931-86.2242 58.5626-86.2242ZM66.1762-77.7541C65.703-79.9073 64.2477-81.7504 61.962-81.6992C59.6518-81.685 57.3757-79.7012 57.8852-77.3327C60.0705-65.9139 60.0705-54.3223 57.871-42.7851C57.3244-40.4055 59.6376-38.4841 61.9478-38.4699C64.0986-38.4556 65.6745-40.1339 66.1178-42.385C68.3497-54.2812 68.3497-65.9542 66.1762-77.7541ZM89.324-78.1629C94.8314-78.1629 99.2465-82.615 99.2465-88.1334C99.2465-93.7141 94.8314-98.0558 89.324-98.0558C83.7686-98.0558 79.3464-93.7141 79.3464-88.1334C79.3464-82.615 83.7686-78.1629 89.324-78.1629ZM80.0526-62.3537C82.9172-62.3537 85.1729-64.6386 85.1729-67.4922C85.1729-70.2282 82.9172-72.5754 80.0526-72.5754C77.2543-72.5754 74.9323-70.2464 74.9323-67.4922C74.9323-64.6205 77.2543-62.3537 80.0526-62.3537ZM129.998-84.3244C132.764-84.3244 135.037-86.5982 135.037-89.4446C135.037-92.2059 132.764-94.535 129.998-94.535C127.126-94.535 124.859-92.2059 124.859-89.4446C124.859-86.5982 127.126-84.3244 129.998-84.3244ZM114.948-81.9513L105.886-72.8896C104.213-71.2357 104.269-68.5682 105.886-66.9324C107.497-65.3408 110.178-65.2856 111.806-66.9143L120.898-76.0059C122.534-77.6417 122.479-80.2973 120.898-81.9513C119.233-83.58 116.533-83.5807 114.948-81.9513ZM96.3129-63.0543L71.0376-37.8847C69.4088-36.2859 69.464-33.5751 71.0557-31.9574C72.6734-30.3216 75.396-30.2664 76.9947-31.9574L102.215-57.2036C103.697-58.7226 103.762-61.3775 102.215-63.0362C100.531-64.6523 97.8572-64.5616 96.3129-63.0543ZM134.764-39.383C138.16-39.383 140.888-42.0748 140.888-45.5443C140.888-48.9215 138.178-51.6796 134.764-51.6796C131.276-51.6796 128.591-48.9215 128.591-45.5443C128.591-42.0748 131.294-39.383 134.764-39.383ZM113.193-37.3775C117.909-37.3775 121.733-41.1032 121.733-45.8117C121.733-50.5714 117.927-54.3887 113.193-54.3887C108.448-54.3887 104.722-50.5714 104.722-45.8117C104.722-41.1032 108.448-37.3775 113.193-37.3775ZM132.382-14.0255C135.79-14.0255 138.5-16.6985 138.5-20.1427C138.5-23.5752 135.79-26.2969 132.382-26.2969C128.968-26.2969 126.228-23.5752 126.228-20.1427C126.228-16.6985 128.968-14.0255 132.382-14.0255ZM116.946-27.048C105.146-29.2404 93.4623-29.2586 81.5842-27.0267C79.3442-26.5282 77.6289-24.9893 77.6502-22.7944C77.7015-20.4912 79.5787-18.2333 81.9844-18.7065C93.5326-20.906 105.106-20.9541 116.532-18.7759C118.838-18.2293 120.895-20.4873 120.909-22.8157C120.924-25.1384 119.088-26.5747 116.946-27.048Z"/>
  </g>
  <g id="Medium-M" transform="matrix(1 0 0 1 1670.92 1126)">
   <path d="M91.891-4.14763C105.557-9.87163 93.0537-31.6039 81.6344-43.0667C70.1378-54.5198 49.0078-67.1467 42.7932-53.3629L13.4205 11.7977C9.8167 19.8457 17.0408 27.142 25.0587 23.7955ZM63.7777-25.198C51.9724-36.9514 47.3442-47.869 50.3944-50.8844C53.4012-53.9449 64.2565-49.2355 76.0705-37.4405C87.9296-25.6785 92.4938-14.7609 89.5058-11.7644C86.447-8.66045 75.5728-13.3509 63.7777-25.198ZM57.5746-86.0053C60.8049-86.0053 63.3936-88.594 63.3936-91.8141C63.3936-94.9994 60.8049-97.6 57.5746-97.6C54.2922-97.6 51.7555-94.9994 51.7555-91.8141C51.7555-88.594 54.2922-86.0053 57.5746-86.0053ZM64.7017-77.2608C64.2675-79.2487 62.9218-80.9707 60.8232-80.9101C58.7286-80.8929 56.6312-79.1046 57.086-76.9407C59.2826-65.4903 59.2826-53.8101 57.0688-42.2061C56.5706-40.0406 58.7114-38.3146 60.806-38.2974C62.8012-38.2802 64.2331-39.864 64.6325-41.9118C66.8738-53.8189 66.8738-65.4586 64.7017-77.2608ZM88.0937-77.7748C93.4219-77.7748 97.6859-82.0822 97.6859-87.412C97.6859-92.8042 93.4219-97.0042 88.0937-97.0042C82.7205-97.0042 78.4479-92.8042 78.4479-87.412C78.4479-82.0822 82.7205-77.7748 88.0937-77.7748ZM78.8042-62.1712C81.4739-62.1712 83.583-64.2922 83.583-66.9602C83.583-69.5121 81.4739-71.6955 78.8042-71.6955C76.19-71.6955 74.0255-69.5224 74.0255-66.9602C74.0255-64.282 76.19-62.1712 78.8042-62.1712ZM128.392-83.7224C130.978-83.7224 133.098-85.8418 133.098-88.5011C133.098-91.072 130.978-93.2451 128.392-93.2451C125.713-93.2451 123.603-91.072 123.603-88.5011C123.603-85.8418 125.713-83.7224 128.392-83.7224ZM113.756-81L104.68-71.9237C103.135-70.4118 103.188-67.9533 104.68-66.4517C106.162-65.0021 108.615-64.9484 110.108-66.4414L119.22-75.5526C120.721-77.0542 120.667-79.4882 119.22-81C117.706-82.493 115.22-82.5159 113.756-81ZM95.3455-62.414L70.234-37.394C68.741-35.9358 68.7947-33.4481 70.2443-31.9568C71.7356-30.4552 74.2479-30.4015 75.706-31.9568L100.764-57.0563C102.129-58.4648 102.161-60.8759 100.764-62.4037C99.2171-63.8493 96.7728-63.7979 95.3455-62.414ZM133.018-39.2968C136.236-39.2968 138.802-41.842 138.802-45.1244C138.802-48.3097 136.247-50.9103 133.018-50.9103C129.725-50.9103 127.189-48.3097 127.189-45.1244C127.189-41.842 129.735-39.2968 133.018-39.2968ZM111.716-37.2785C116.244-37.2785 119.912-40.864 119.912-45.3839C119.912-49.9644 116.254-53.6242 111.716-53.6242C107.152-53.6242 103.567-49.9644 103.567-45.3839C103.567-40.864 107.152-37.2785 111.716-37.2785ZM130.868-14.0976C134.088-14.0976 136.643-16.6097 136.643-19.8732C136.643-23.1122 134.088-25.6922 130.868-25.6922C127.639-25.6922 125.049-23.1122 125.049-19.8732C125.049-16.6097 127.639-14.0976 130.868-14.0976ZM115.661-26.3795C103.858-28.5847 92.217-28.5949 80.3201-26.3536C78.274-25.9005 76.6467-24.512 76.6725-22.4648C76.7331-20.3788 78.4071-18.2917 80.6144-18.726C92.2201-20.9398 103.89-20.9849 115.349-18.7969C117.451-18.2986 119.303-20.3857 119.32-22.4906C119.337-24.6326 117.647-25.9452 115.661-26.3795Z"/>
  </g>
  <g id="Regular-M" transform="matrix(1 0 0 1 1375.57 1126)">
   <path d="M90.3107-4.83432C103.163-10.2222 91.1126-31.1852 79.946-42.4036C68.7477-53.5501 48.2103-65.598 42.4707-52.8421L13.3016 11.8618C10.0848 19.0419 16.7454 25.9 23.9878 22.8807ZM62.3032-24.7714C50.5889-36.4233 45.8307-47.6231 49.0946-50.8458C52.3068-54.1098 63.4443-49.2787 75.1691-37.5644C86.9351-25.9019 91.6416-14.7021 88.44-11.4899C85.1655-8.1742 74.0175-12.9948 62.3032-24.7714ZM56.2858-85.7199C59.2618-85.7199 61.6676-88.1257 61.6676-91.1017C61.6676-94.0366 59.2618-96.4318 56.2858-96.4318C53.2474-96.4318 50.9039-94.0366 50.9039-91.1017C50.9039-88.1257 53.2474-85.7199 56.2858-85.7199ZM62.7786-76.6174C62.3952-78.3896 61.1923-79.9537 59.3377-79.8809C57.5243-79.8598 55.6602-78.3263 56.0436-76.4295C58.2549-64.9378 58.2549-53.1421 56.0225-41.4509C55.5873-39.5647 57.5032-38.0935 59.3166-38.0724C61.1089-38.0513 62.353-39.5119 62.6951-41.2946C64.9487-53.2159 64.9487-64.8122 62.7786-76.6174ZM86.489-77.2686C91.5834-77.2686 95.6503-81.3872 95.6503-86.4711C95.6503-91.6173 91.5834-95.6324 86.489-95.6324C81.3534-95.6324 77.2759-91.6173 77.2759-86.4711C77.2759-81.3872 81.3534-77.2686 86.489-77.2686ZM77.1759-61.9331C79.5913-61.9331 81.5092-63.8404 81.5092-66.2663C81.5092-68.5781 79.5913-70.5477 77.1759-70.5477C74.8018-70.5477 72.8427-68.5781 72.8427-66.2663C72.8427-63.8404 74.8018-61.9331 77.1759-61.9331ZM126.297-82.9373C128.65-82.9373 130.568-84.8552 130.568-87.2705C130.568-89.5929 128.65-91.5625 126.297-91.5625C123.871-91.5625 121.963-89.5929 121.963-87.2705C121.963-84.8552 123.871-82.9373 126.297-82.9373ZM112.202-79.7593L103.106-70.6638C101.728-69.3373 101.78-67.1511 103.106-65.8246C104.422-64.5604 106.578-64.5087 107.894-65.8246L117.03-74.9613C118.357-76.2878 118.305-78.4328 117.03-79.7593C115.714-81.0752 113.507-81.127 112.202-79.7593ZM94.0836-61.5789L69.1859-36.754C67.8699-35.4792 67.9217-33.2825 69.1859-31.956C70.5123-30.6295 72.7503-30.5777 74.025-31.956L98.8711-56.8643C100.084-58.1285 100.073-60.2217 98.8711-61.5789C97.5034-62.8019 95.3584-62.8019 94.0836-61.5789ZM130.74-39.1843C133.727-39.1843 136.081-41.5383 136.081-44.5767C136.081-47.5116 133.727-49.9068 130.74-49.9068C127.702-49.9068 125.359-47.5116 125.359-44.5767C125.359-41.5383 127.702-39.1843 130.74-39.1843ZM109.788-37.1494C114.072-37.1494 117.537-40.552 117.537-44.8259C117.537-49.1727 114.072-52.6271 109.788-52.6271C105.462-52.6271 102.06-49.1727 102.06-44.8259C102.06-40.552 105.462-37.1494 109.788-37.1494ZM128.892-14.1916C131.868-14.1916 134.222-16.4938 134.222-19.5217C134.222-22.5083 131.868-24.9035 128.892-24.9035C125.906-24.9035 123.511-22.5083 123.511-19.5217C123.511-16.4938 125.906-14.1916 128.892-14.1916ZM113.983-25.5075C102.178-27.7293 90.5926-27.7293 78.6713-25.4758C76.878-25.0819 75.3656-23.8895 75.3972-22.035C75.4701-20.2321 76.879-18.368 78.8275-18.7514C90.5081-20.9838 102.304-21.025 113.806-18.8242C115.641-18.3891 117.226-20.2532 117.247-22.0666C117.268-23.9729 115.766-25.1241 113.983-25.5075Z"/>
  </g>
  <g id="Light-M" transform="matrix(1 0 0 1 1080.07 1126)">
   <path d="M89.2498-5.80964C101.725-11.0435 89.2304-31.7499 78.7482-42.2667C68.1831-52.7972 47.8852-65.0847 42.4365-52.9619L13.2502 11.7934C10.273 18.3917 16.3176 24.6509 22.9783 21.8883ZM61.0883-24.6345C49.2714-36.3891 44.2736-48.1706 47.8797-51.7698C51.4513-55.376 63.1705-50.2882 75.0151-38.4713C86.8667-26.689 91.8299-14.9074 88.286-11.3359C84.6522-7.69509 72.9053-12.7552 61.0883-24.6345ZM55.6184-86.0108C58.1667-86.0108 60.2303-88.0743 60.2303-90.6226C60.2303-93.1639 58.1667-95.1998 55.6184-95.1998C53.0078-95.1998 51.0066-93.1639 51.0066-90.6226C51.0066-88.0743 53.0078-86.0108 55.6184-86.0108ZM61.3241-76.2923C61.0263-77.7051 59.9945-78.8758 58.5677-78.7858C57.1479-78.7305 55.7971-77.5392 56.0949-76.0017C58.2549-64.8693 58.2549-53.1421 56.0396-41.5878C55.7071-40.078 57.0926-38.949 58.5124-38.8937C59.8769-38.8384 60.9157-39.9397 61.2065-41.3802C63.4771-53.3357 63.4771-64.6411 61.3241-76.2923ZM85.3939-77.6963C90.0605-77.6963 93.751-81.4214 93.751-86.0604C93.751-90.7617 90.0605-94.4175 85.3939-94.4175C80.7203-94.4175 77.0021-90.7617 77.0021-86.0604C77.0021-81.4214 80.7203-77.6963 85.3939-77.6963ZM76.2348-62.5491C78.2224-62.5491 79.8152-64.1142 79.8152-66.1294C79.8152-68.0477 78.2224-69.6751 76.2348-69.6751C74.2543-69.6751 72.6545-68.0477 72.6545-66.1294C72.6545-64.1142 74.2543-62.5491 76.2348-62.5491ZM124.688-83.2624C126.613-83.2624 128.206-84.8552 128.206-86.8427C128.206-88.7887 126.613-90.4161 124.688-90.4161C122.673-90.4161 121.108-88.7887 121.108-86.8427C121.108-84.8552 122.673-83.2624 124.688-83.2624ZM111.278-78.9722L102.285-69.9794C101.198-68.9266 101.232-67.2366 102.285-66.1839C103.31-65.1935 105.021-65.1589 106.046-66.1839L115.046-75.1837C116.098-76.2364 116.064-77.9195 115.046-78.9722C114.02-79.9972 112.275-80.0319 111.278-78.9722ZM93.3821-61.0142L68.8265-36.5486C67.8015-35.5305 67.8361-33.8129 68.8265-32.7602C69.8792-31.7075 71.6039-31.6728 72.622-32.7602L97.1429-57.3434C98.0986-58.3338 98.071-59.9822 97.1429-61.0142C96.0832-61.9976 94.4001-61.9976 93.3821-61.0142ZM129.064-40.0912C131.639-40.0912 133.668-42.1201 133.668-44.7307C133.668-47.272 131.639-49.3079 129.064-49.3079C126.453-49.3079 124.452-47.272 124.452-44.7307C124.452-42.1201 126.453-40.0912 129.064-40.0912ZM108.385-38.0905C112.242-38.0905 115.364-41.1509 115.364-44.9799C115.364-48.8989 112.242-51.994 108.385-51.994C104.521-51.994 101.461-48.8989 101.461-44.9799C101.461-41.1509 104.521-38.0905 108.385-38.0905ZM127.25-15.2867C129.798-15.2867 131.827-17.2809 131.827-19.8639C131.827-22.4398 129.798-24.4757 127.25-24.4757C124.674-24.4757 122.638-22.4398 122.638-19.8639C122.638-17.2809 124.674-15.2867 127.25-15.2867ZM112.615-25.2508C100.963-27.4384 89.6857-27.4384 77.7302-25.1678C76.262-24.8423 75.126-23.8382 75.209-22.4114C75.299-21.0192 76.3656-19.6684 77.9377-19.9662C89.4644-22.1816 101.192-22.1885 112.352-20.0562C113.827-19.7237 115.053-21.0746 115.108-22.4944C115.163-23.9558 114.055-24.953 112.615-25.2508Z"/>
  </g>
  <g id="Thin-M" transform="matrix(1 0 0 1 784.953 1126)">
   <path d="M87.8467-7.09959C99.8243-12.1298 86.7411-32.4967 77.1641-42.0856C67.4362-51.8015 47.4552-64.4058 42.3912-53.1203L13.1823 11.7028C10.522 17.5318 15.7519 22.9989 21.6431 20.5757ZM59.4816-24.4534C47.5288-36.3438 42.2142-48.8948 46.273-52.9919C50.3197-57.0507 62.8084-51.6234 74.8114-39.6707C86.7762-27.73 92.0788-15.179 88.0823-11.1322C83.9733-7.06144 71.4343-12.4384 59.4816-24.4534ZM54.7359-86.3955C56.7184-86.3955 58.3293-88.0064 58.3293-89.989C58.3293-92.0098 56.7184-93.5704 54.7359-93.5704C52.691-93.5704 51.1424-92.0098 51.1424-89.989C51.1424-88.0064 52.691-86.3955 54.7359-86.3955ZM59.4005-75.8623C59.2159-76.7999 58.4104-77.45 57.5493-77.3374C56.65-77.2368 55.9781-76.4982 56.1628-75.4359C58.2549-64.7788 58.2549-53.1421 56.0622-41.7688C55.8655-40.7569 56.5494-40.0805 57.4487-39.98C58.2475-39.8794 59.0147-40.5055 59.2376-41.4934C61.5309-53.4941 61.5309-64.4148 59.4005-75.8623ZM83.9455-78.2621C88.0464-78.2621 91.239-81.4667 91.239-85.5173C91.239-89.6302 88.0464-92.8108 83.9455-92.8108C79.8829-92.8108 76.64-89.6302 76.64-85.5173C76.64-81.4667 79.8829-78.2621 83.9455-78.2621ZM74.9902-63.3638C76.4119-63.3638 77.5747-64.4763 77.5747-65.9483C77.5747-67.3461 76.4119-68.5209 74.9902-68.5209C73.5301-68.5209 72.4056-67.3461 72.4056-65.9483C72.4056-64.4763 73.5301-63.3638 74.9902-63.3638ZM122.561-83.6924C123.92-83.6924 125.083-84.8552 125.083-86.277C125.083-87.725 123.92-88.8998 122.561-88.8998C121.089-88.8998 119.976-87.725 119.976-86.277C119.976-84.8552 121.089-83.6924 122.561-83.6924ZM110.056-77.9312L101.199-69.0741C100.496-68.3835 100.508-67.3498 101.199-66.6592C101.839-66.0308 102.961-66.0188 103.602-66.6592L112.42-75.4779C113.111-76.1686 113.099-77.2405 112.42-77.9312C111.78-78.5715 110.646-78.5835 110.056-77.9312ZM92.4542-60.2674L68.3513-36.2771C67.7109-35.5984 67.723-34.5144 68.3513-33.8238C69.0419-33.1332 70.0876-33.1212 70.7662-33.8238L94.8572-57.977C95.4735-58.6054 95.4232-59.6653 94.8572-60.2674C94.2048-60.934 93.1328-60.934 92.4542-60.2674ZM126.846-41.2906C128.879-41.2906 130.477-42.8895 130.477-44.9344C130.477-46.9552 128.879-48.5158 126.846-48.5158C124.801-48.5158 123.252-46.9552 123.252-44.9344C123.252-42.8895 124.801-41.2906 126.846-41.2906ZM106.529-39.3351C109.82-39.3351 112.49-41.943 112.49-45.1836C112.49-48.5368 109.82-51.1567 106.529-51.1567C103.276-51.1567 100.669-48.5368 100.669-45.1836C100.669-41.943 103.276-39.3351 106.529-39.3351ZM125.077-16.735C127.06-16.735 128.659-18.322 128.659-20.3165C128.659-22.3493 127.06-23.91 125.077-23.91C123.044-23.91 121.484-22.3493 121.484-20.3165C121.484-18.322 123.044-16.735 125.077-16.735ZM110.804-24.9113C99.3566-27.0537 88.4863-27.0537 76.4855-24.7605C75.4473-24.5255 74.8092-23.7703 74.9601-22.9093C75.0727-22.0602 75.6867-21.3883 76.761-21.573C88.0839-23.7657 99.7206-23.7274 110.428-21.6856C111.428-21.4889 112.179-22.1608 112.279-23.0601C112.38-23.9332 111.792-24.7267 110.804-24.9113Z"/>
  </g>
  <g id="Ultralight-M" transform="matrix(1 0 0 1 489.059 1126)">
   <path d="M87.128-7.76029C98.8506-12.6861 85.466-32.8792 76.3527-41.9929C67.0537-51.2915 47.2349-64.058 42.368-53.2014L13.1476 11.6565C10.6495 17.0913 15.4621 22.1527 20.9592 19.9034ZM58.6586-24.3607C46.6363-36.3207 41.1594-49.2657 45.45-53.6178C49.7402-57.9084 62.6229-52.3073 74.7071-40.285C86.7298-28.2632 92.2063-15.3181 87.978-11.0279C83.6255-6.73688 70.6809-12.2761 58.6586-24.3607ZM54.2838-86.5926C55.9765-86.5926 57.3557-87.9717 57.3557-89.6644C57.3557-91.4186 55.9765-92.7359 54.2838-92.7359C52.5287-92.7359 51.2119-91.4186 51.2119-89.6644C51.2119-87.9717 52.5287-86.5926 54.2838-86.5926ZM58.4153-75.6421C58.2885-76.3363 57.599-76.7198 57.0277-76.5956C56.395-76.4718 56.0709-75.965 56.1976-75.1462C58.2549-64.7324 58.2549-53.1421 56.0738-41.8616C55.9467-41.1047 56.2712-40.6601 56.904-40.5363C57.4129-40.4126 58.041-40.7952 58.2292-41.5513C60.534-53.5753 60.534-64.2988 58.4153-75.6421ZM83.2037-78.5519C87.0148-78.5519 89.9524-81.4899 89.9524-85.2391C89.9524-89.0506 87.0148-91.9878 83.2037-91.9878C79.454-91.9878 76.4546-89.0506 76.4546-85.2391C76.4546-81.4899 79.454-78.5519 83.2037-78.5519ZM74.3526-63.781C75.4846-63.781 76.4272-64.6617 76.4272-65.8556C76.4272-66.9868 75.4846-67.9298 74.3526-67.9298C73.1592-67.9298 72.2781-66.9868 72.2781-65.8556C72.2781-64.6617 73.1592-63.781 74.3526-63.781ZM121.471-83.9126C122.541-83.9126 123.484-84.8552 123.484-85.9872C123.484-87.1802 122.541-88.1232 121.471-88.1232C120.278-88.1232 119.397-87.1802 119.397-85.9872C119.397-84.8552 120.278-83.9126 121.471-83.9126ZM109.43-77.398L100.642-68.6105C100.137-68.1053 100.137-67.4078 100.642-66.9026C101.086-66.4597 101.906-66.4593 102.35-66.9026L111.076-75.6286C111.581-76.1338 111.581-76.8928 111.076-77.398C110.632-77.8413 109.811-77.8417 109.43-77.398ZM91.979-59.8849L68.1079-36.138C67.6646-35.6332 67.665-34.8738 68.1079-34.3686C68.613-33.8634 69.311-33.863 69.8158-34.3686L93.6864-58.3016C94.1289-58.7445 94.067-59.5031 93.6864-59.8849C93.2427-60.3892 92.4837-60.3892 91.979-59.8849ZM125.71-41.9049C127.464-41.9049 128.843-43.2836 128.843-45.0387C128.843-46.7929 127.464-48.1101 125.71-48.1101C123.955-48.1101 122.638-46.7929 122.638-45.0387C122.638-43.2836 123.955-41.9049 125.71-41.9049ZM105.579-39.9727C108.58-39.9727 111.018-42.3486 111.018-45.2879C111.018-48.3514 108.58-50.7278 105.579-50.7278C102.639-50.7278 100.263-48.3514 100.263-45.2879C100.263-42.3486 102.639-39.9727 105.579-39.9727ZM123.964-17.4769C125.657-17.4769 127.036-18.8552 127.036-20.5483C127.036-22.303 125.657-23.6202 123.964-23.6202C122.21-23.6202 120.893-22.303 120.893-20.5483C120.893-18.8552 122.21-17.4769 123.964-17.4769ZM109.877-24.7375C98.5336-26.8567 87.8719-26.8567 75.848-24.5518C75.03-24.3632 74.6469-23.7355 74.8326-23.1643C74.9567-22.5934 75.339-22.2693 76.1582-22.396C87.3768-24.5771 98.9672-24.5156 109.443-22.5202C110.199-22.3931 110.707-22.7172 110.83-23.3499C110.954-23.9216 110.633-24.6108 109.877-24.7375Z"/>
  </g>
  <g id="Black-S" transform="matrix(1 0 0 1 2868.8 696)">
   <path d="M78.2227-8.20312C92.1387-14.0137 80.5176-34.082 70.6055-43.9941C60.4492-54.1504 41.5527-66.3574 34.8145-51.5137L10.9863 1.36719C6.64062 11.084 14.502 18.5059 23.8281 14.5996ZM55.7617-29.0527C46.1426-38.6719 43.0176-46.1426 44.5801-47.7051C46.1426-49.3164 53.5645-46.0938 63.1836-36.5234C72.8516-26.9043 75.8789-19.4336 74.3652-17.9199C72.8027-16.3086 65.332-19.4824 55.7617-29.0527ZM50.1953-76.1719C53.7109-76.1719 56.4453-78.9062 56.4453-82.373C56.4453-85.8398 53.7109-88.6719 50.1953-88.6719C46.6797-88.6719 43.9453-85.8398 43.9453-82.373C43.9453-78.9062 46.6797-76.1719 50.1953-76.1719ZM58.252-70.7031C57.7148-73.0957 56.1035-75.0488 53.5156-75.0488C50.7812-75.0488 48.2422-72.6562 48.877-69.9219C50.5371-61.1328 50.5371-52.4414 48.877-43.7012C48.2422-40.918 50.7812-38.5742 53.5156-38.5742C55.8594-38.5742 57.7148-40.2832 58.252-42.9199C59.9609-52.1973 59.9609-61.4746 58.252-70.7031ZM75.3418-70.6055C80.4199-70.6055 84.5215-74.707 84.5215-79.834C84.5215-85.0098 80.4199-89.0137 75.3418-89.0137C70.2148-89.0137 66.1133-85.0098 66.1133-79.834C66.1133-74.707 70.2148-70.6055 75.3418-70.6055ZM68.1641-57.3242C71.2402-57.3242 73.6328-59.8145 73.6328-62.8418C73.6328-65.7715 71.2402-68.3105 68.1641-68.3105C65.1855-68.3105 62.6953-65.8203 62.6953-62.8418C62.6953-59.7656 65.1855-57.3242 68.1641-57.3242ZM108.838-76.3672C111.768-76.3672 114.209-78.8086 114.209-81.8359C114.209-84.8145 111.768-87.3047 108.838-87.3047C105.762-87.3047 103.32-84.8145 103.32-81.8359C103.32-78.8086 105.762-76.3672 108.838-76.3672ZM95.2637-75.9766L88.2324-68.9453C86.377-67.041 86.4258-64.0625 88.2324-62.207C90.0391-60.3516 93.1152-60.3027 94.9707-62.1582L102.002-69.1895C103.857-71.0449 103.809-74.0723 102.002-75.9766C100.049-77.832 97.0215-77.7344 95.2637-75.9766ZM79.6875-59.8145L59.1797-39.4531C57.3242-37.5977 57.373-34.5215 59.2285-32.7148C61.0352-30.8594 64.0625-30.8105 65.918-32.7148L86.377-53.125C88.0371-54.7852 88.2324-57.9102 86.377-59.7656C84.4727-61.7676 81.3965-61.5234 79.6875-59.8145ZM113.184-38.916C116.602-38.916 119.434-41.6504 119.434-45.166C119.434-48.6328 116.65-51.4648 113.184-51.4648C109.619-51.4648 106.885-48.6328 106.885-45.166C106.885-41.6504 109.668-38.916 113.184-38.916ZM95.1172-37.4023C99.6094-37.4023 103.271-40.918 103.271-45.4102C103.271-49.9023 99.6582-53.5645 95.1172-53.5645C90.625-53.5645 87.1094-49.9023 87.1094-45.4102C87.1094-40.918 90.625-37.4023 95.1172-37.4023ZM110.303-18.3594C113.77-18.3594 116.553-21.1426 116.553-24.6094C116.553-28.125 113.77-30.8594 110.303-30.8594C106.836-30.8594 104.053-28.125 104.053-24.6094C104.053-21.1426 106.836-18.3594 110.303-18.3594ZM97.2168-31.7383C87.9883-33.3984 78.6621-33.4473 69.4336-31.7383C66.8457-31.1523 65.1367-29.2969 65.1367-26.9531C65.1367-24.2188 67.4805-21.7285 70.2148-22.2656C79.0039-23.9258 87.6465-23.9746 96.4355-22.3145C99.1211-21.6797 101.611-24.1699 101.611-26.9531C101.611-29.541 99.5605-31.2012 97.2168-31.7383Z"/>
  </g>
  <g id="Heavy-S" transform="matrix(1 0 0 1 2573.46 696)">
   <path d="M76.5862-8.8485C89.6379-14.3018 78.5815-33.5404 68.8653-43.2681C58.9626-53.1593 40.6999-64.6864 34.4572-50.9144L10.8596 1.44786C6.91721 10.2657 14.2254 17.2727 22.7563 13.7007ZM54.2635-28.5918C44.7596-38.0841 41.5194-45.7968 43.2778-47.5437C45.0247-49.3395 52.6886-46.0131 62.1925-36.5465C71.7452-27.0541 74.8993-19.3414 73.1897-17.6318C71.4313-15.8246 63.7301-19.1136 54.2635-28.5918ZM48.8354-75.8146C52.1206-75.8146 54.6936-78.3876 54.6936-81.6355C54.6936-84.8718 52.1206-87.5194 48.8354-87.5194C45.5388-87.5194 42.9773-84.8718 42.9773-81.6355C42.9773-78.3876 45.5388-75.8146 48.8354-75.8146ZM56.2813-70.0232C55.7903-72.2198 54.3172-74.0462 51.9483-74.0347C49.479-74.0347 47.1358-71.8841 47.7015-69.4033C49.3847-60.522 49.3847-51.6923 47.7015-42.8368C47.1243-40.3187 49.479-38.217 51.9483-38.217C54.1192-38.217 55.7903-39.8337 56.2697-42.2169C57.9903-51.5058 57.9903-60.7716 56.2813-70.0232ZM73.6823-69.9831C78.553-69.9831 82.4817-73.9234 82.4817-78.8314C82.4817-83.7882 78.553-87.6307 73.6823-87.6307C68.7628-87.6307 64.8341-83.7882 64.8341-78.8314C64.8341-73.9234 68.7628-69.9831 73.6823-69.9831ZM66.4584-56.9785C69.3041-56.9785 71.5238-59.2728 71.5238-62.0812C71.5238-64.7919 69.3041-67.1351 66.4584-67.1351C63.6989-67.1351 61.393-64.8292 61.393-62.0812C61.393-59.2355 63.6989-56.9785 66.4584-56.9785ZM106.694-75.4452C109.417-75.4452 111.674-77.7022 111.674-80.5106C111.674-83.2587 109.417-85.5645 106.694-85.5645C103.849-85.5645 101.592-83.2587 101.592-80.5106C101.592-77.7022 103.849-75.4452 106.694-75.4452ZM93.6387-74.6858L86.5729-67.62C84.8672-65.8886 84.9161-63.1521 86.5729-61.4579C88.2297-59.7753 91.0293-59.7265 92.7234-61.4206L99.8008-68.498C101.495-70.1921 101.446-72.9544 99.8008-74.6858C98.032-76.3799 95.2582-76.3169 93.6387-74.6858ZM78.3622-58.9501L58.0503-38.7617C56.3562-37.0791 56.405-34.2679 58.0876-32.6111C59.7444-30.917 62.5297-30.8682 64.2123-32.6111L84.4754-52.8484C85.9973-54.3818 86.1465-57.2072 84.4754-58.9128C82.7325-60.6958 79.9329-60.5093 78.3622-58.9501ZM110.844-38.674C114.055-38.674 116.691-41.2355 116.691-44.5322C116.691-47.7685 114.092-50.4161 110.844-50.4161C107.51-50.4161 104.949-47.7685 104.949-44.5322C104.949-41.2355 107.547-38.674 110.844-38.674ZM93.135-37.1373C97.4082-37.1373 100.886-40.4916 100.886-44.7648C100.886-49.0495 97.4455-52.5273 93.135-52.5273C88.8502-52.5273 85.4959-49.0495 85.4959-44.7648C85.4959-40.4916 88.8502-37.1373 93.135-37.1373ZM108.297-18.3248C111.545-18.3248 114.144-20.9121 114.144-24.1714C114.144-27.4566 111.545-30.0296 108.297-30.0296C105.05-30.0296 102.439-27.4566 102.439-24.1714C102.439-20.9121 105.05-18.3248 108.297-18.3248ZM95.5112-30.7933C86.2596-32.4765 76.9565-32.5138 67.7049-30.7933C65.359-30.265 63.7307-28.6054 63.7307-26.423C63.7423-23.9537 65.8325-21.6478 68.3248-22.1389C77.2176-23.8221 86.01-23.8709 94.8913-22.1877C97.3233-21.6105 99.56-23.9164 99.56-26.423C99.56-28.8034 97.6705-30.3023 95.5112-30.7933Z"/>
  </g>
  <g id="Bold-S" transform="matrix(1 0 0 1 2278.28 696)">
   <path d="M74.7559-9.57031C86.8408-14.624 76.416-32.9346 66.9189-42.4561C57.2998-52.0508 39.7461-62.8174 34.0576-50.2441L10.7178 1.53809C7.22656 9.35059 13.916 15.8936 21.5576 12.6953ZM52.5879-28.0762C43.2129-37.4268 39.8438-45.4102 41.8213-47.3633C43.7744-49.3652 51.709-45.9229 61.084-36.5723C70.5078-27.2217 73.8037-19.2383 71.875-17.3096C69.8975-15.2832 61.9385-18.7012 52.5879-28.0762ZM47.3145-75.415C50.3418-75.415 52.7344-77.8076 52.7344-80.8105C52.7344-83.7891 50.3418-86.2305 47.3145-86.2305C44.2627-86.2305 41.8945-83.7891 41.8945-80.8105C41.8945-77.8076 44.2627-75.415 47.3145-75.415ZM54.0771-69.2627C53.6377-71.2402 52.3193-72.9248 50.1953-72.9004C48.0225-72.9004 45.8984-71.0205 46.3867-68.8232C48.0957-59.8389 48.0957-50.8545 46.3867-41.8701C45.874-39.6484 48.0225-37.8174 50.1953-37.8174C52.1729-37.8174 53.6377-39.3311 54.0527-41.4307C55.7861-50.7324 55.7861-59.9854 54.0771-69.2627ZM71.8262-69.2871C76.4648-69.2871 80.2002-73.0469 80.2002-77.71C80.2002-82.4219 76.4648-86.084 71.8262-86.084C67.1387-86.084 63.4033-82.4219 63.4033-77.71C63.4033-73.0469 67.1387-69.2871 71.8262-69.2871ZM64.5508-56.5918C67.1387-56.5918 69.165-58.667 69.165-61.2305C69.165-63.6963 67.1387-65.8203 64.5508-65.8203C62.0361-65.8203 59.9365-63.7207 59.9365-61.2305C59.9365-58.6426 62.0361-56.5918 64.5508-56.5918ZM104.297-74.4141C106.787-74.4141 108.838-76.4648 108.838-79.0283C108.838-81.5186 106.787-83.6182 104.297-83.6182C101.709-83.6182 99.6582-81.5186 99.6582-79.0283C99.6582-76.4648 101.709-74.4141 104.297-74.4141ZM91.8213-73.2422L84.7168-66.1377C83.1787-64.5996 83.2275-62.1338 84.7168-60.6201C86.2061-59.1309 88.6963-59.082 90.21-60.5957L97.3389-67.7246C98.8525-69.2383 98.8037-71.7041 97.3389-73.2422C95.7764-74.7559 93.2861-74.7314 91.8213-73.2422ZM76.8799-57.9834L56.7871-37.9883C55.2734-36.499 55.3223-33.9844 56.8115-32.4951C58.3008-30.9814 60.8154-30.9326 62.3047-32.4951L82.3486-52.5391C83.7158-53.9307 83.8135-56.4209 82.3486-57.959C80.7861-59.4971 78.2959-59.375 76.8799-57.9834ZM108.228-38.4033C111.206-38.4033 113.623-40.7715 113.623-43.8232C113.623-46.8018 111.23-49.2432 108.228-49.2432C105.151-49.2432 102.783-46.8018 102.783-43.8232C102.783-40.7715 105.176-38.4033 108.228-38.4033ZM90.918-36.8408C94.9463-36.8408 98.2178-40.0146 98.2178-44.043C98.2178-48.0957 94.9707-51.3672 90.918-51.3672C86.8652-51.3672 83.6914-48.0957 83.6914-44.043C83.6914-40.0146 86.8652-36.8408 90.918-36.8408ZM106.055-18.2861C109.058-18.2861 111.45-20.6543 111.45-23.6816C111.45-26.709 109.058-29.1016 106.055-29.1016C103.052-29.1016 100.635-26.709 100.635-23.6816C100.635-20.6543 103.052-18.2861 106.055-18.2861ZM93.6035-29.7363C84.3262-31.4453 75.0488-31.4697 65.7715-29.7363C63.6963-29.2725 62.1582-27.832 62.1582-25.8301C62.1826-23.6572 63.9893-21.5576 66.2109-21.9971C75.2197-23.7061 84.1797-23.7549 93.1641-22.0459C95.3125-21.5332 97.2656-23.6328 97.2656-25.8301C97.2656-27.9785 95.5566-29.2969 93.6035-29.7363Z"/>
  </g>
  <g id="Semibold-S" transform="matrix(1 0 0 1 1982.63 696)">
   <path d="M73.4939-10.068C84.9124-14.8462 74.923-32.5169 65.5771-41.8962C56.1534-51.2865 39.0885-61.5288 33.7821-49.782L10.62 1.60029C7.43984 8.71963 13.7027 14.9427 20.7312 12.0021ZM51.4326-27.7207C42.1465-36.9735 38.6885-45.1436 40.8171-47.2389C42.9124-49.383 51.0336-45.8606 60.3197-36.59C69.6547-27.3372 73.0483-19.1672 70.9686-17.0874C68.8399-14.91 60.7032-18.4168 51.4326-27.7207ZM46.2658-75.1396C49.1154-75.1396 51.3836-77.4077 51.3836-80.2418C51.3836-83.0426 49.1154-85.3418 46.2658-85.3418C43.3829-85.3418 41.148-83.0426 41.148-80.2418C41.148-77.4077 43.3829-75.1396 46.2658-75.1396ZM52.5575-68.7384C52.1536-70.5648 50.9419-72.1517 48.9867-72.1184C47.0183-72.1184 45.0453-70.4251 45.4803-68.4233C47.207-59.3679 47.207-50.2769 45.4803-41.2036C45.012-39.1863 47.0183-37.5419 48.9867-37.5419C50.831-37.5419 52.1536-38.9845 52.5242-40.8886C54.2665-50.1992 54.2665-59.4433 52.5575-68.7384ZM70.5465-68.8072C75.0252-68.8072 78.6272-72.4426 78.6272-76.9368C78.6272-81.4799 75.0252-85.0176 70.5465-85.0176C66.0189-85.0176 62.4169-81.4799 62.4169-76.9368C62.4169-72.4426 66.0189-68.8072 70.5465-68.8072ZM63.2355-56.3252C65.6457-56.3252 67.5388-58.2493 67.5388-60.6439C67.5388-62.9409 65.6457-64.9139 63.2355-64.9139C60.8897-64.9139 58.9323-62.9564 58.9323-60.6439C58.9323-58.2338 60.8897-56.3252 63.2355-56.3252ZM102.644-73.7031C104.974-73.7031 106.883-75.6117 106.883-78.0063C106.883-80.3188 104.974-82.2763 102.644-82.2763C100.234-82.2763 98.3252-80.3188 98.3252-78.0063C98.3252-75.6117 100.234-73.7031 102.644-73.7031ZM90.5683-72.2469L83.4371-65.1157C82.0146-63.7109 82.0634-61.4317 83.4371-60.0425C84.8108-58.6865 87.0878-58.6377 88.4771-60.027L95.6415-67.1914C97.0308-68.5807 96.9819-70.8421 95.6415-72.2469C94.2212-73.6361 91.9265-73.6384 90.5683-72.2469ZM75.8579-57.3169L55.9162-37.4551C54.527-36.0991 54.5758-33.7889 55.9317-32.4151C57.3055-31.0259 59.6335-30.9771 60.9895-32.4151L80.8823-52.3258C82.1429-53.6196 82.205-55.8788 80.8823-57.3014C79.4442-58.6706 77.1673-58.593 75.8579-57.3169ZM106.424-38.2167C109.242-38.2167 111.508-40.4516 111.508-43.3345C111.508-46.1353 109.258-48.4345 106.424-48.4345C103.525-48.4345 101.29-46.1353 101.29-43.3345C101.29-40.4516 103.541-38.2167 106.424-38.2167ZM89.3895-36.6364C93.2489-36.6364 96.3782-39.6858 96.3782-43.5453C96.3782-47.4381 93.2645-50.5674 89.3895-50.5674C85.4967-50.5674 82.4473-47.4381 82.4473-43.5453C82.4473-39.6858 85.4967-36.6364 89.3895-36.6364ZM104.508-18.2595C107.342-18.2595 109.593-20.4766 109.593-23.3439C109.593-26.1936 107.342-28.4617 104.508-28.4617C101.674-28.4617 99.3906-26.1936 99.3906-23.3439C99.3906-20.4766 101.674-18.2595 104.508-18.2595ZM92.2883-29.0076C82.9932-30.7344 73.7336-30.7499 64.4385-29.0076C62.5499-28.5882 61.074-27.2988 61.074-25.4213C61.1073-23.4528 62.7185-21.4954 64.7535-21.8993C73.8423-23.6261 82.9178-23.6749 91.9732-21.9481C93.9262-21.4799 95.6838-23.4373 95.6838-25.4213C95.6838-27.4098 94.0992-28.6037 92.2883-29.0076Z"/>
  </g>
  <g id="Medium-S" transform="matrix(1 0 0 1 1686.72 696)">
   <path d="M72.5371-10.4453C83.4502-15.0146 73.791-32.2002 64.5596-41.4717C55.2842-50.707 38.5898-60.5518 33.5732-49.4316L10.5459 1.64746C7.60156 8.24121 13.541 14.2217 20.1045 11.4766ZM50.5566-27.4512C41.3379-36.6299 37.8125-44.9414 40.0557-47.1445C42.2588-49.3965 50.5215-45.8135 59.7402-36.6035C69.0078-27.4248 72.4756-19.1133 70.2812-16.9189C68.0381-14.627 59.7666-18.2012 50.5566-27.4512ZM45.4707-74.9307C48.1855-74.9307 50.3594-77.1045 50.3594-79.8105C50.3594-82.4766 48.1855-84.668 45.4707-84.668C42.7158-84.668 40.582-82.4766 40.582-79.8105C40.582-77.1045 42.7158-74.9307 45.4707-74.9307ZM51.4053-68.3408C51.0283-70.0527 49.8975-71.5654 48.0703-71.5254C46.2568-71.5254 44.3984-69.9736 44.793-68.1201C46.5332-59.0107 46.5332-49.8389 44.793-40.6982C44.3584-38.8359 46.2568-37.333 48.0703-37.333C49.8135-37.333 51.0283-38.7217 51.3652-40.4775C53.1143-49.7949 53.1143-59.0322 51.4053-68.3408ZM69.5762-68.4434C73.9336-68.4434 77.4346-71.9844 77.4346-76.3506C77.4346-80.7656 73.9336-84.209 69.5762-84.209C65.1699-84.209 61.6689-80.7656 61.6689-76.3506C61.6689-71.9844 65.1699-68.4434 69.5762-68.4434ZM62.2383-56.123C64.5137-56.123 66.3057-57.9326 66.3057-60.1992C66.3057-62.3682 64.5137-64.2266 62.2383-64.2266C60.0205-64.2266 58.1709-62.377 58.1709-60.1992C58.1709-57.9238 60.0205-56.123 62.2383-56.123ZM101.391-73.1641C103.6-73.1641 105.4-74.9648 105.4-77.2314C105.4-79.4092 103.6-81.2588 101.391-81.2588C99.1152-81.2588 97.3145-79.4092 97.3145-77.2314C97.3145-74.9648 99.1152-73.1641 101.391-73.1641ZM89.6182-71.4922L82.4668-64.3408C81.1318-63.0371 81.1807-60.8994 82.4668-59.6045C83.7529-58.3496 85.8682-58.3008 87.1631-59.5957L94.3545-66.7871C95.6494-68.082 95.6006-70.1885 94.3545-71.4922C93.042-72.7871 90.8955-72.8096 89.6182-71.4922ZM75.083-56.8115L55.2559-37.0508C53.9609-35.7959 54.0098-33.6406 55.2646-32.3545C56.5508-31.0596 58.7373-31.0107 59.9922-32.3545L79.7705-52.1641C80.9502-53.3838 80.9854-55.4678 79.7705-56.8027C78.4268-58.0439 76.3115-58 75.083-56.8115ZM105.056-38.0752C107.753-38.0752 109.904-40.209 109.904-42.9639C109.904-45.6299 107.762-47.8213 105.056-47.8213C102.292-47.8213 100.158-45.6299 100.158-42.9639C100.158-40.209 102.301-38.0752 105.056-38.0752ZM88.2305-36.4814C91.9619-36.4814 94.9834-39.4365 94.9834-43.168C94.9834-46.9395 91.9707-49.9609 88.2305-49.9609C84.459-49.9609 81.5039-46.9395 81.5039-43.168C81.5039-39.4365 84.459-36.4814 88.2305-36.4814ZM103.336-18.2393C106.042-18.2393 108.185-20.3418 108.185-23.0879C108.185-25.8027 106.042-27.9766 103.336-27.9766C100.63-27.9766 98.4473-25.8027 98.4473-23.0879C98.4473-20.3418 100.63-18.2393 103.336-18.2393ZM91.291-28.4551C81.9824-30.1953 72.7363-30.2041 63.4277-28.4551C61.6807-28.0693 60.252-26.8945 60.252-25.1113C60.292-23.2979 61.7549-21.4482 63.6484-21.8252C72.7979-23.5654 81.9609-23.6143 91.0703-21.874C92.875-21.4395 94.4844-23.2891 94.4844-25.1113C94.4844-26.9785 92.9941-28.0781 91.291-28.4551Z"/>
  </g>
  <g id="Regular-S" transform="matrix(1 0 0 1 1391.06 696)">
   <path d="M71.2891-10.9375C81.543-15.2344 72.3145-31.7871 63.2324-40.918C54.1504-49.9512 37.9395-59.2773 33.3008-48.9746L10.4492 1.70898C7.8125 7.61719 13.3301 13.2812 19.2871 10.791ZM49.4141-27.0996C40.2832-36.1816 36.6699-44.6777 39.0625-47.0215C41.4062-49.4141 49.8535-45.752 58.9844-36.6211C68.1641-27.5391 71.7285-19.043 69.3848-16.6992C66.9922-14.2578 58.5449-17.9199 49.4141-27.0996ZM44.4336-74.6582C46.9727-74.6582 49.0234-76.709 49.0234-79.248C49.0234-81.7383 46.9727-83.7891 44.4336-83.7891C41.8457-83.7891 39.8438-81.7383 39.8438-79.248C39.8438-76.709 41.8457-74.6582 44.4336-74.6582ZM49.9023-67.8223C49.5605-69.3848 48.5352-70.8008 46.875-70.752C45.2637-70.752 43.5547-69.3848 43.8965-67.7246C45.6543-58.5449 45.6543-49.2676 43.8965-40.0391C43.5059-38.3789 45.2637-37.0605 46.875-37.0605C48.4863-37.0605 49.5605-38.3789 49.8535-39.9414C51.6113-49.2676 51.6113-58.4961 49.9023-67.8223ZM68.3105-67.9688C72.5098-67.9688 75.8789-71.3867 75.8789-75.5859C75.8789-79.834 72.5098-83.1543 68.3105-83.1543C64.0625-83.1543 60.6934-79.834 60.6934-75.5859C60.6934-71.3867 64.0625-67.9688 68.3105-67.9688ZM60.9375-55.8594C63.0371-55.8594 64.6973-57.5195 64.6973-59.6191C64.6973-61.6211 63.0371-63.3301 60.9375-63.3301C58.8867-63.3301 57.1777-61.6211 57.1777-59.6191C57.1777-57.5195 58.8867-55.8594 60.9375-55.8594ZM99.7559-72.4609C101.807-72.4609 103.467-74.1211 103.467-76.2207C103.467-78.2227 101.807-79.9316 99.7559-79.9316C97.6562-79.9316 95.9961-78.2227 95.9961-76.2207C95.9961-74.1211 97.6562-72.4609 99.7559-72.4609ZM88.3789-70.5078L81.2012-63.3301C79.9805-62.1582 80.0293-60.2051 81.2012-59.0332C82.373-57.9102 84.2773-57.8613 85.4492-59.0332L92.6758-66.2598C93.8477-67.4316 93.7988-69.3359 92.6758-70.5078C91.5039-71.6797 89.5508-71.7285 88.3789-70.5078ZM74.0723-56.1523L54.3945-36.5234C53.2227-35.4004 53.2715-33.4473 54.3945-32.2754C55.5664-31.1035 57.5684-31.0547 58.6914-32.2754L78.3203-51.9531C79.3945-53.0762 79.3945-54.9316 78.3203-56.1523C77.0996-57.2266 75.1953-57.2266 74.0723-56.1523ZM103.271-37.8906C105.811-37.8906 107.812-39.8926 107.812-42.4805C107.812-44.9707 105.811-47.0215 103.271-47.0215C100.684-47.0215 98.6816-44.9707 98.6816-42.4805C98.6816-39.8926 100.684-37.8906 103.271-37.8906ZM86.7188-36.2793C90.2832-36.2793 93.1641-39.1113 93.1641-42.6758C93.1641-46.2891 90.2832-49.1699 86.7188-49.1699C83.1055-49.1699 80.2734-46.2891 80.2734-42.6758C80.2734-39.1113 83.1055-36.2793 86.7188-36.2793ZM101.807-18.2129C104.346-18.2129 106.348-20.166 106.348-22.7539C106.348-25.293 104.346-27.3438 101.807-27.3438C99.2676-27.3438 97.2168-25.293 97.2168-22.7539C97.2168-20.166 99.2676-18.2129 101.807-18.2129ZM89.9902-27.7344C80.6641-29.4922 71.4355-29.4922 62.1094-27.7344C60.5469-27.3926 59.1797-26.3672 59.1797-24.707C59.2285-23.0957 60.498-21.3867 62.207-21.7285C71.4355-23.4863 80.7129-23.5352 89.8926-21.7773C91.5039-21.3867 92.9199-23.0957 92.9199-24.707C92.9199-26.416 91.5527-27.3926 89.9902-27.7344Z"/>
  </g>
  <g id="Light-S" transform="matrix(1 0 0 1 1095.41 696)">
   <path d="M70.3506-11.8003C80.2715-15.9609 70.6494-32.2866 62.1729-40.7969C53.6509-49.2852 37.6519-58.8232 33.2705-49.0806L10.4038 1.64844C7.979 7.042 12.9517 12.1763 18.3941 9.91309ZM48.3394-26.9785C39.1177-36.1514 35.2925-45.1621 37.9878-47.8389C40.6494-50.5342 49.6113-46.645 58.8481-37.4233C68.1035-28.2353 71.895-19.2246 69.2485-16.563C66.5381-13.834 57.561-17.708 48.3394-26.9785ZM43.8433-74.9155C46.0039-74.9155 47.752-76.6636 47.752-78.8242C47.752-80.9663 46.0039-82.6992 43.8433-82.6992C41.6338-82.6992 39.9346-80.9663 39.9346-78.8242C39.9346-76.6636 41.6338-74.9155 43.8433-74.9155ZM48.6157-67.5347C48.3496-68.7793 47.4756-69.8472 46.1939-69.7832C44.9307-69.7529 43.6758-68.6885 43.9419-67.3462C45.6543-58.4844 45.6543-49.2676 43.9116-40.1602C43.6118-38.833 44.9004-37.8174 46.1636-37.7871C47.3965-37.7568 48.2891-38.7573 48.5366-40.0171C50.3096-49.3735 50.3096-58.3447 48.6157-67.5347ZM67.3418-68.3472C71.1626-68.3472 74.1987-71.417 74.1987-75.2227C74.1987-79.0772 71.1626-82.0796 67.3418-82.0796C63.5024-82.0796 60.4512-79.0772 60.4512-75.2227C60.4512-71.417 63.5024-68.3472 67.3418-68.3472ZM60.105-56.4043C61.8262-56.4043 63.1987-57.7617 63.1987-59.498C63.1987-61.1519 61.8262-62.5581 60.105-62.5581C58.4023-62.5581 57.0112-61.1519 57.0112-59.498C57.0112-57.7617 58.4023-56.4043 60.105-56.4043ZM98.333-72.7485C100.005-72.7485 101.378-74.1211 101.378-75.8423C101.378-77.5112 100.005-78.9175 98.333-78.9175C96.5967-78.9175 95.2393-77.5112 95.2393-75.8423C95.2393-74.1211 96.5967-72.7485 98.333-72.7485ZM87.5615-69.8115L80.4746-62.7246C79.5112-61.7949 79.5449-60.2808 80.4746-59.3511C81.3892-58.4702 82.8999-58.4365 83.8145-59.3511L90.9199-66.4565C91.8496-67.3862 91.8159-68.8818 90.9199-69.8115C90.0054-70.7261 88.4609-70.7598 87.5615-69.8115ZM73.4517-55.6528L54.0767-36.3418C53.1621-35.4458 53.1958-33.9165 54.0767-32.9868C55.0064-32.0571 56.5542-32.0234 57.4502-32.9868L76.7915-52.3769C77.6387-53.2578 77.6235-54.7197 76.7915-55.6528C75.8433-56.5151 74.3477-56.5151 73.4517-55.6528ZM101.788-38.6929C103.964-38.6929 105.678-40.4072 105.678-42.6167C105.678-44.7588 103.964-46.4917 101.788-46.4917C99.5786-46.4917 97.8794-44.7588 97.8794-42.6167C97.8794-40.4072 99.5786-38.6929 101.788-38.6929ZM85.4775-37.1118C88.6636-37.1118 91.2417-39.6411 91.2417-42.812C91.2417-46.0469 88.6636-48.6099 85.4775-48.6099C82.273-48.6099 79.7437-46.0469 79.7437-42.812C79.7437-39.6411 82.273-37.1118 85.4775-37.1118ZM100.354-19.1816C102.514-19.1816 104.229-20.8623 104.229-23.0566C104.229-25.2324 102.514-26.9653 100.354-26.9653C98.1777-26.9653 96.4448-25.2324 96.4448-23.0566C96.4448-20.8623 98.1777-19.1816 100.354-19.1816ZM88.7793-27.5073C79.5894-29.2349 70.6333-29.2349 61.2769-27.4619C60.002-27.1807 58.9678-26.3218 59.0132-25.04C59.0771-23.792 60.0439-22.5371 61.4199-22.8032C70.5122-24.5459 79.729-24.5644 88.606-22.8672C89.8994-22.5674 90.9976-23.8223 91.0278-25.0854C91.0581-26.4009 90.0391-27.2412 88.7793-27.5073Z"/>
  </g>
  <g id="Thin-S" transform="matrix(1 0 0 1 800.112 696)">
   <path d="M69.1094-12.9414C78.5899-16.9219 68.4473-32.9473 60.7715-40.6367C52.9902-48.4043 37.2715-58.2227 33.2305-49.2207L10.3438 1.56836C8.19922 6.28126 12.4512 10.7149 17.2129 8.75197ZM46.918-26.8184C37.5762-36.1113 33.4707-45.8027 36.5664-48.9199C39.6485-52.0156 49.291-47.8262 58.668-38.4844C68.0234-29.1562 72.1152-19.4648 69.0684-16.3828C65.9375-13.2734 56.2598-17.4277 46.918-26.8184ZM43.0625-75.2559C44.7227-75.2559 46.0703-76.6035 46.0703-78.2637C46.0703-79.9453 44.7227-81.2578 43.0625-81.2578C41.3535-81.2578 40.0547-79.9453 40.0547-78.2637C40.0547-76.6035 41.3535-75.2559 43.0625-75.2559ZM46.9141-67.1543C46.7481-67.9785 46.0742-68.586 45.293-68.502C44.4902-68.4317 43.8359-67.7676 44.002-66.8457C45.6543-58.4043 45.6543-49.2676 43.9316-40.3203C43.752-39.4336 44.4199-38.8183 45.2227-38.748C45.9551-38.6777 46.6074-39.2578 46.7949-40.1172C48.5879-49.5137 48.5879-58.1445 46.9141-67.1543ZM66.0606-68.8476C69.3809-68.8476 71.9766-71.457 71.9766-74.7422C71.9766-78.0762 69.3809-80.6582 66.0606-80.6582C62.7617-80.6582 60.1309-78.0762 60.1309-74.7422C60.1309-71.457 62.7617-68.8476 66.0606-68.8476ZM59.0039-57.125C60.2246-57.125 61.2168-58.082 61.2168-59.3379C61.2168-60.5313 60.2246-61.5371 59.0039-61.5371C57.7617-61.5371 56.791-60.5313 56.791-59.3379C56.791-58.082 57.7617-57.125 59.0039-57.125ZM96.4512-73.1289C97.6231-73.1289 98.6153-74.1211 98.6153-75.3418C98.6153-76.5703 97.6231-77.5762 96.4512-77.5762C95.1953-77.5762 94.2383-76.5703 94.2383-75.3418C94.2383-74.1211 95.1953-73.1289 96.4512-73.1289ZM86.4805-68.8906L79.5137-61.9238C78.8906-61.3145 78.9043-60.3809 79.5137-59.7715C80.0879-59.2109 81.0782-59.1973 81.6524-59.7715L88.5977-66.7168C89.2071-67.3262 89.1934-68.2813 88.5977-68.8906C88.0235-69.4649 87.0196-69.4785 86.4805-68.8906ZM72.6309-54.9922L53.6563-36.1016C53.082-35.5059 53.0957-34.5371 53.6563-33.9277C54.2656-33.3183 55.2129-33.3047 55.8086-33.9277L74.7696-52.9375C75.3164-53.498 75.2813-54.4395 74.7696-54.9922C74.1817-55.5742 73.2266-55.5742 72.6309-54.9922ZM99.8262-39.7539C101.522-39.7539 102.856-41.0879 102.856-42.7969C102.856-44.4785 101.522-45.791 99.8262-45.791C98.1172-45.791 96.8184-44.4785 96.8184-42.7969C96.8184-41.0879 98.1172-39.7539 99.8262-39.7539ZM83.836-38.2129C86.5215-38.2129 88.6993-40.3418 88.6993-42.9922C88.6993-45.7266 86.5215-47.8692 83.836-47.8692C81.1719-47.8692 79.043-45.7266 79.043-42.9922C79.043-40.3418 81.1719-38.2129 83.836-38.2129ZM98.4317-20.4629C100.092-20.4629 101.426-21.7832 101.426-23.457C101.426-25.1523 100.092-26.4649 98.4317-26.4649C96.7363-26.4649 95.4238-25.1523 95.4238-23.457C95.4238-21.7832 96.7363-20.4629 98.4317-20.4629ZM87.1778-27.207C78.168-28.8945 69.5723-28.8945 60.1758-27.1016C59.2813-26.9004 58.6875-26.2617 58.793-25.4805C58.877-24.7129 59.4434-24.0586 60.3789-24.2246C69.291-25.9472 78.4278-25.9258 86.9043-24.3086C87.7774-24.1289 88.4551-24.7832 88.5254-25.5859C88.5957-26.3809 88.0371-27.041 87.1778-27.207Z"/>
  </g>
  <g id="Ultralight-S" transform="matrix(1 0 0 1 504.123 696)">
   <path d="M68.4737-13.5259C77.7285-17.414 67.3194-33.2856 60.0537-40.5547C52.6519-47.9531 37.0767-57.915 33.21-49.2925L10.313 1.52735C8.31201 5.89162 12.1948 9.96633 16.6079 8.15725ZM46.19-26.7363C36.7866-36.0908 32.5376-46.1308 35.8384-49.4736C39.1358-52.7744 49.127-48.4311 58.5757-39.0278C67.9824-29.6279 72.228-19.5879 68.9761-16.2905C65.6299-12.9863 55.5933-17.2842 46.19-26.7363ZM42.6626-75.4302C44.0664-75.4302 45.209-76.5728 45.209-77.9766C45.209-79.4224 44.0664-80.5196 42.6626-80.5196C41.21-80.5196 40.1162-79.4224 40.1162-77.9766C40.1162-76.5728 41.21-75.4302 42.6626-75.4302ZM46.0425-66.9595C45.9278-67.5684 45.3565-67.94 44.8316-67.8457C44.2647-67.7549 43.918-67.2959 44.0327-66.5894C45.6543-58.3633 45.6543-49.2676 43.9419-40.4023C43.8237-39.7412 44.1738-39.331 44.7407-39.2402C45.2168-39.1494 45.7461-39.5142 45.9029-40.1685C47.7061-49.5854 47.7061-58.042 46.0425-66.9595ZM65.4043-69.104C68.4683-69.104 70.8384-71.4775 70.8384-74.4961C70.8384-77.5635 68.4683-79.9302 65.4043-79.9302C62.3823-79.9302 59.9668-77.5635 59.9668-74.4961C59.9668-71.4775 62.3823-69.104 65.4043-69.104ZM58.44-57.4941C59.4043-57.4941 60.2017-58.2461 60.2017-59.2559C60.2017-60.2134 59.4043-61.0142 58.44-61.0142C57.4336-61.0142 56.6782-60.2134 56.6782-59.2559C56.6782-58.2461 57.4336-57.4941 58.44-57.4941ZM95.4873-73.3237C96.4029-73.3237 97.2002-74.1211 97.2002-75.0855C97.2002-76.0884 96.4029-76.8892 95.4873-76.8892C94.4776-76.8892 93.7256-76.0884 93.7256-75.0855C93.7256-74.1211 94.4776-73.3237 95.4873-73.3237ZM85.9268-68.419L79.0215-61.5137C78.5728-61.0684 78.5762-60.4321 79.0215-59.9868C79.4214-59.5903 80.1451-59.5869 80.545-59.9868L87.4082-66.8501C87.8536-67.2954 87.8501-67.9736 87.4082-68.419C87.0083-68.8189 86.2813-68.8223 85.9268-68.419ZM72.2105-54.6538L53.4409-35.9785C53.041-35.5366 53.0444-34.855 53.4409-34.4097C53.8862-33.9643 54.5259-33.9609 54.9678-34.4097L73.7339-53.2246C74.127-53.6211 74.0816-54.2959 73.7339-54.6538C73.3306-55.0923 72.6524-55.0923 72.2105-54.6538ZM98.8213-40.2973C100.271-40.2973 101.41-41.4365 101.41-42.8892C101.41-44.335 100.271-45.4321 98.8213-45.4321C97.3687-45.4321 96.2749-44.335 96.2749-42.8892C96.2749-41.4365 97.3687-40.2973 98.8213-40.2973ZM82.9951-38.7768C85.4244-38.7768 87.397-40.7007 87.397-43.0845C87.397-45.5625 85.4244-47.4898 82.9951-47.4898C80.6079-47.4898 78.6841-45.5625 78.6841-43.0845C78.6841-40.7007 80.6079-38.7768 82.9951-38.7768ZM97.4473-21.1191C98.8511-21.1191 99.9903-22.2549 99.9903-23.6621C99.9903-25.1113 98.8511-26.2085 97.4473-26.2085C95.9981-26.2085 94.9009-25.1113 94.9009-23.6621C94.9009-22.2549 95.9981-21.1191 97.4473-21.1191ZM86.3575-27.0532C77.44-28.7202 69.0288-28.7202 59.6118-26.917C58.9121-26.7568 58.544-26.231 58.6802-25.706C58.7744-25.1846 59.1358-24.8379 59.8457-24.9526C68.6655-26.665 77.7613-26.623 86.0327-25.0468C86.6905-24.9287 87.1529-25.2754 87.2437-25.8423C87.3345-26.3706 87.0118-26.9385 86.3575-27.0532Z"/>
  </g>
 </g>
</svg>
